<svg width="375" height="242" viewBox="0 0 375 242" fill="none" xmlns="http://www.w3.org/2000/svg">
<rect x="-9" y="-14" width="400" height="256" fill="#7000FF"/>
<path d="M134.152 70.9919C134.309 71.0127 134.468 71.0025 134.62 70.9619C134.772 70.9213 134.915 70.8511 135.041 70.7552C135.166 70.6594 135.271 70.5399 135.35 70.4034C135.429 70.2669 135.48 70.1162 135.501 69.9599C135.522 69.8036 135.512 69.6447 135.471 69.4923C135.431 69.3399 135.36 69.197 135.265 69.0718C135.169 68.9465 135.049 68.8414 134.913 68.7623C134.776 68.6833 134.626 68.6319 134.469 68.6111C132.213 68.3111 130.197 70.0247 130.197 72.5255C130.197 72.8438 130.324 73.149 130.549 73.374C130.774 73.5991 131.079 73.7255 131.397 73.7255C131.716 73.7255 132.021 73.5991 132.246 73.374C132.471 73.149 132.597 72.8438 132.597 72.5255C132.597 71.4287 133.384 70.8863 134.152 70.9895V70.9919Z" fill="#B367FF"/>
<path d="M134.979 83.9138C137.841 83.9138 140.585 82.7772 142.608 80.754C144.631 78.7309 145.767 75.9869 145.767 73.1258C145.767 70.2646 144.631 67.5206 142.608 65.4975C140.585 63.4744 137.841 62.3378 134.979 62.3378C132.118 62.3378 129.374 63.4744 127.351 65.4975C125.328 67.5206 124.191 70.2646 124.191 73.1258C124.191 75.9869 125.328 78.7309 127.351 80.754C129.374 82.7772 132.118 83.9138 134.979 83.9138ZM134.979 81.5138C133.878 81.5138 132.787 81.2968 131.769 80.8753C130.752 80.4537 129.827 79.8359 129.048 79.057C128.269 78.2781 127.651 77.3534 127.23 76.3357C126.808 75.318 126.591 74.2273 126.591 73.1258C126.591 72.0242 126.808 70.9335 127.23 69.9158C127.651 68.8981 128.269 67.9735 129.048 67.1946C129.827 66.4157 130.752 65.7978 131.769 65.3763C132.787 64.9547 133.878 64.7378 134.979 64.7378C137.204 64.7378 139.338 65.6215 140.911 67.1946C142.484 68.7676 143.367 70.9011 143.367 73.1258C143.367 75.3504 142.484 77.4839 140.911 79.057C139.338 80.63 137.204 81.5138 134.979 81.5138Z" fill="#B367FF"/>
<path d="M137.902 52.9778C140.41 53.141 142.764 53.8874 144.447 54.9482C148.303 57.3842 149.967 60.0626 150.927 61.7402C151.86 63.3674 153.701 66.9794 153.437 70.9178C153.369 71.9788 153.23 73.034 153.019 74.0762L152.923 74.5898C152.789 75.3674 152.705 76.1642 152.847 77.897C153.015 79.9394 152.602 82.1762 151.738 84.161C150.874 86.141 149.518 87.9698 147.711 89.0978C143.955 91.445 139.431 91.9538 135.187 90.257C133.246 89.4818 132.591 89.297 131.856 89.2538C131.34 89.2338 130.822 89.2386 130.306 89.2682H130.289C129.593 89.297 128.7 89.3306 127.459 89.3306C122.004 89.3306 118.375 86.0666 116.523 82.505C113.808 77.2826 113.883 69.377 119.851 64.6658C121.675 63.2258 122.22 62.7458 122.835 61.721C123.845 60.0362 124.805 58.7162 125.967 57.5786C127.131 56.4362 128.453 55.517 130.152 54.5834C132.622 53.225 135.384 52.8122 137.902 52.9754V52.9778ZM137.746 55.373C135.586 55.229 133.296 55.5938 131.307 56.6882C129.737 57.5522 128.609 58.349 127.647 59.2922C126.684 60.2378 125.844 61.3706 124.894 62.9546C124.025 64.4018 123.147 65.1218 121.339 66.5474C116.515 70.3562 116.309 76.8914 118.651 81.3986C120.199 84.3746 123.111 86.9306 127.459 86.9306C128.655 86.9306 129.514 86.897 130.203 86.8706H130.248C130.911 86.8466 131.472 86.8226 132.007 86.8586C133.167 86.9306 134.143 87.2546 136.078 88.0298C139.584 89.4314 143.307 89.021 146.439 87.0626C147.73 86.2562 148.815 84.8666 149.537 83.201C150.262 81.5402 150.588 79.7018 150.456 78.0938C150.298 76.1762 150.384 75.1754 150.559 74.177L150.667 73.5986C150.804 72.8714 150.951 72.0986 151.042 70.757C151.258 67.5722 149.739 64.493 148.846 62.933C147.979 61.4258 146.556 59.117 143.165 56.9786C141.869 56.1602 139.915 55.5146 137.746 55.3706V55.373Z" fill="#B367FF"/>
<g clip-path="url(#clip0)">
<path d="M53.8906 54.7522L54.09 56.2389L53.8906 54.7522C51.2273 55.1096 48.4734 54.8343 45.8319 53.9372C41.6351 52.4914 38.1443 49.6686 35.7404 46.1317C32.9944 42.0781 29.287 38.869 24.7458 37.3292C22.8682 36.6919 21.2388 35.3072 20.2406 33.4606C19.2426 31.6142 18.9767 29.4927 19.4719 27.5729C19.4719 27.5727 19.472 27.5725 19.472 27.5724L20.5954 23.2244L20.5971 23.2177C21.581 19.3362 25.4635 17.1648 29.6619 18.5883L29.6619 18.5883L29.7908 18.632C29.7908 18.632 29.7908 18.632 29.7908 18.632C34.1353 20.1049 38.6417 19.7126 42.7161 18.0384L42.7161 18.0384L42.7236 18.0353C47.485 16.0486 53.2993 16.2553 58.7528 19.5069L58.7557 19.5086C65.0444 23.2391 68.9838 30.5933 68.5805 37.8617L68.5798 37.8754L68.5792 37.8891C68.4736 40.7323 67.7534 43.4632 66.4811 45.8826C65.2091 48.3014 63.4168 50.3494 61.2408 51.8813C59.065 53.4131 56.5542 54.3948 53.8906 54.7522ZM4.50667 23.7554L3.41769 23.3739L2.76966 24.3286C2.04823 25.3914 0.766329 25.8712 -0.567464 25.403L-0.58033 25.3984L-0.593278 25.3942C-1.20044 25.1933 -1.76468 24.8098 -2.20624 24.2788C-2.64796 23.7477 -2.9382 23.1031 -3.04195 22.4292C-3.14563 21.7558 -3.05705 21.0951 -2.80599 20.5264C-2.55565 19.9593 -2.15407 19.5053 -1.65887 19.2064L-0.483446 18.497L-1.08629 17.2635C-1.39157 16.6389 -1.51597 15.9541 -1.45433 15.2986L-2.94774 15.1582L-1.45433 15.2986C-1.39279 14.6441 -1.14988 14.0546 -0.774219 13.5928C-0.399633 13.1322 0.0981945 12.8084 0.660777 12.6547C1.22448 12.5007 1.84526 12.52 2.44959 12.73L2.44957 12.73L2.46018 12.7336C3.84052 13.2016 4.82335 14.5361 4.92014 15.9608L4.98718 16.9476L5.92066 17.2747L14.9541 20.44C14.8372 20.763 14.7281 21.0999 14.6403 21.4396L13.5168 25.7882L13.5122 25.8058L13.5081 25.8235C13.4302 26.1583 13.3586 26.4929 13.2984 26.8352L4.50667 23.7554Z" stroke="#B367FF" stroke-width="3"/>
</g>
<g clip-path="url(#clip1)">
<path d="M221.705 35.7792L221.702 35.788C221.246 37.3907 221.091 38.7946 221.271 39.9253C221.448 41.0405 222.036 42.2193 223.325 42.6069C224.519 42.966 225.68 42.4355 226.535 41.768C227.438 41.0635 228.305 39.9877 229.077 38.6118L229.079 38.6088C229.583 37.7049 230.173 36.8303 230.822 35.9589C233.805 37.3519 236.173 38.9519 237.803 40.638C239.618 42.5156 240.43 44.399 240.349 46.1916C240.277 47.7258 239.578 48.8971 238.202 49.8585C236.759 50.8664 234.585 51.6224 231.701 52.1275C225.941 53.1364 217.954 53.0506 208.965 52.6137L208.965 52.6137C199.972 52.1799 192.01 51.4907 186.368 49.9277C183.542 49.1451 181.446 48.1814 180.101 47.0373C178.817 45.9449 178.231 44.7098 178.302 43.1774L178.302 43.1763C178.393 41.1928 179.58 39.2013 181.988 37.364C183.839 35.9514 186.329 34.7001 189.333 33.6989C189.28 33.8673 189.23 34.0369 189.181 34.2075C188.724 35.8092 188.567 37.2126 188.747 38.3431C188.925 39.4587 189.513 40.6363 190.801 41.0244C191.994 41.3839 193.154 40.8553 194.01 40.1886C194.912 39.4859 195.778 38.4128 196.548 37.0406C197.706 35.0054 199.116 33.1263 200.745 31.4477C202.774 31.2698 204.811 31.1857 206.847 31.1957C206.29 32.4254 205.821 33.6942 205.444 34.9927L205.444 34.9927L205.441 35.0009C204.986 36.6022 204.831 38.0053 205.011 39.1356C205.19 40.2505 205.778 41.4281 207.065 41.8161C208.259 42.1758 209.42 41.6464 210.275 40.9791C211.176 40.276 212.042 39.2026 212.813 37.8297C214.029 35.7041 215.519 33.7497 217.245 32.0168C219.052 32.3033 220.845 32.6718 222.619 33.1211C222.272 33.9917 221.967 34.8787 221.705 35.7792L221.705 35.7792Z" stroke="#B367FF" stroke-width="3"/>
</g>
<g clip-path="url(#clip2)">
<path d="M370.224 19.4245C370.224 19.4245 368.68 30.611 360.623 35.0647C352.565 39.5184 332.252 35.1059 332.252 35.1059C332.252 35.1059 335.818 14.6094 342.367 8.94168C348.916 3.27394 362.937 8.09217 362.937 8.09217" stroke="#B367FF" stroke-width="2" stroke-linecap="round" stroke-linejoin="round"/>
<path d="M373.461 8.60574C373.461 8.60574 364.255 16.5146 356.61 20.8985C348.965 25.2822 342.076 26.6043 342.076 26.6043L373.461 8.60574ZM356.61 20.8985L345.791 17.6621L356.61 20.8985ZM356.61 20.8985L353.925 29.1783L356.61 20.8985Z" fill="#B367FF"/>
<path d="M356.61 20.8985L353.925 29.1783M373.461 8.60574C373.461 8.60574 364.255 16.5146 356.61 20.8985C348.965 25.2822 342.076 26.6043 342.076 26.6043L373.461 8.60574ZM356.61 20.8985L345.791 17.6621L356.61 20.8985Z" stroke="#B367FF" stroke-linecap="round" stroke-linejoin="round"/>
</g>
<g clip-path="url(#clip3)">
<path d="M42.5258 184.402C42.9231 177.336 50.8638 166.537 40.1448 161.535C29.4257 156.532 26.249 169.554 21.6436 173.206C17.0381 176.858 11.7975 178.764 8.46225 185.91C3.45943 196.629 10.1685 205.562 17.91 209.175C25.6515 212.788 36.8075 212.193 41.8104 201.474C44.5897 195.519 42.1284 191.469 42.5258 184.402Z" stroke="#B367FF" stroke-width="3"/>
<path d="M32.8379 195.836C31.9533 197.731 30.3521 199.197 28.3865 199.912C26.4209 200.627 24.2519 200.531 22.3566 199.647C20.4614 198.762 18.9952 197.161 18.2805 195.195C17.5658 193.23 17.6613 191.061 18.5458 189.166C20.388 185.219 25.9139 181.726 29.8609 183.568C33.8079 185.41 34.68 191.889 32.8379 195.836Z" stroke="#B367FF" stroke-width="3"/>
</g>
<g clip-path="url(#clip4)">
<path d="M241.576 82.4927C246.576 76.8463 255.549 77.3814 259.841 83.5843C264.133 89.7872 261.471 98.3725 254.424 101.062L227.517 111.325C226.566 111.688 225.52 111.721 224.548 111.419C223.576 111.118 222.732 110.499 222.153 109.661V109.661C221.574 108.824 221.292 107.817 221.352 106.801C221.413 105.785 221.812 104.818 222.487 104.056L241.576 82.4927V82.4927Z" stroke="#B367FF" stroke-width="2"/>
<path d="M229.403 96.4494L232.471 100.883M266.491 78.9825L260.395 83.2008L266.491 78.9825ZM269.406 86.9662L263.712 86.4361L269.406 86.9662ZM260.125 73.5528L258.614 79.0682L260.125 73.5528ZM243.729 81.6194L248.33 88.2702L243.729 81.6194ZM242.872 96.9643L247.474 103.615L242.872 96.9643Z" stroke="#B367FF" stroke-width="2" stroke-linecap="round"/>
</g>
<g clip-path="url(#clip5)">
<path d="M68.1 107.25H66.7729L66.6112 108.567L63.7217 132.106C63.6213 132.497 63.434 132.866 63.1387 133.223C62.9321 133.472 62.7933 133.5 62.6625 133.5H50.3375C50.2033 133.5 50.0492 133.468 49.823 133.204C49.5234 132.854 49.356 132.504 49.2826 132.142L46.3888 108.567L46.2271 107.25H44.9C44.4691 107.25 44.1448 107.123 43.8527 106.866C43.5814 106.627 43.5 106.413 43.5 106.146C43.5 105.876 43.5836 105.648 43.8676 105.391C44.1613 105.125 44.4806 105 44.9 105H59.1734H60.3153L60.6193 103.899L63.1568 94.7118L63.1598 94.7009L63.1627 94.6899C63.1765 94.6367 63.1912 94.6161 63.1969 94.6085C63.2031 94.6005 63.2231 94.5763 63.281 94.5426C63.3569 94.4984 63.4053 94.487 63.5159 94.5152C63.5836 94.5324 63.6097 94.5509 63.617 94.5564C63.6237 94.5614 63.6429 94.5767 63.6704 94.6248C63.7203 94.7123 63.7235 94.7553 63.7046 94.8308L61.4422 103.104L60.9238 105H62.8891H68.1C68.5194 105 68.8387 105.125 69.1324 105.391C69.4164 105.648 69.5 105.876 69.5 106.146C69.5 106.413 69.4186 106.627 69.1473 106.866C68.8552 107.123 68.5309 107.25 68.1 107.25Z" stroke="#B367FF" stroke-width="3"/>
</g>
<path d="M105.026 18.4567C109.749 21.0705 119.161 26.9613 119.026 29.6144L128.916 23.0129C125.898 18.1934 120.769 7.94932 124.395 5.52877M105.026 18.4567C106.903 14.1287 113.585 14.0253 116.692 14.5146C114.367 8.89025 120.859 6.18057 124.395 5.52877M105.026 18.4567C103.363 21.9157 99.2201 27.0729 95.9492 20.0302C92.3741 20.9215 85.8686 20.9923 88.4473 14.1457C86.1229 11.8531 83.4542 6.84304 91.375 5.14419C89.8958 2.92796 88.199 -1.57777 93.2456 -1.8708C91.9038 -4.1786 90.3995 -8.81245 95.1164 -8.88543C95.7965 -12.3291 98.3505 -17.9632 103.126 -12.95C104.556 -14.9724 107.998 -17.611 110.322 -11.9867C112.52 -13.4537 116.706 -15.0947 115.869 -9.92303C119.11 -11.0181 125.181 -12.0375 123.54 -7.35487C126.707 -6.47837 132.298 -4.23024 129.33 -2.24979C125.621 0.225766 137.128 4.07787 124.395 5.52877" stroke="#B367FF" stroke-width="3" stroke-linecap="round" stroke-linejoin="round"/>
<g clip-path="url(#clip6)">
<path d="M334.118 171.889L334.216 171.811C334.544 171.549 335.03 171.275 335.542 171.002C335.826 170.85 336.159 170.678 336.514 170.494C336.804 170.344 337.11 170.186 337.418 170.024C338.825 169.285 340.483 168.363 342.067 167.208C345.256 164.881 347.954 161.75 347.878 157.45C347.875 157.28 347.775 157.029 347.358 156.777C346.941 156.525 346.312 156.35 345.588 156.358C344.164 156.374 342.618 157.079 341.891 158.836C341.889 158.846 341.884 158.864 341.879 158.894C341.864 158.967 341.849 159.065 341.829 159.199C341.822 159.241 341.815 159.287 341.808 159.335C341.773 159.575 341.727 159.879 341.667 160.211C341.521 161.007 341.274 162.033 340.784 163.019C340.29 164.011 339.53 164.997 338.347 165.647C337.161 166.298 335.654 166.554 333.77 166.27L333.748 166.267L333.718 166.262C331.945 165.92 329.621 165.853 327.655 165.94C326.188 166.004 324.532 166.517 323.331 167.211C322.728 167.558 322.302 167.916 322.065 168.226C321.83 168.534 321.864 168.671 321.873 168.701L334.118 171.889ZM334.118 171.889L334.043 171.989M334.118 171.889L334.043 171.989M334.043 171.989C333.976 172.077 333.907 172.162 333.834 172.245L333.811 172.271C333.107 173.061 331.953 173.821 330.51 174.297L330.51 174.297C329.055 174.776 327.28 175.038 325.837 174.972C325.112 174.938 324.534 174.825 324.138 174.659C323.738 174.491 323.661 174.333 323.644 174.279L323.644 174.279C323.62 174.199 323.605 173.964 323.856 173.515C324.097 173.084 324.514 172.583 325.08 172.069L326.399 170.872M334.043 171.989L326.399 170.872M326.399 170.872L324.69 170.369M326.399 170.872L324.69 170.369M324.69 170.369C323.879 170.131 323.171 169.814 322.654 169.475M324.69 170.369L322.654 169.475M322.654 169.475C322.102 169.114 321.91 168.824 321.873 168.701L322.654 169.475Z" stroke="#B367FF" stroke-width="2"/>
<path d="M335.72 141.189L335.424 141.009L335.078 140.978C335.058 140.976 335.029 140.973 334.989 140.968L334.988 140.967C333.54 140.772 332.256 140.859 331.181 141.356C330.06 141.875 329.351 142.755 328.926 143.768C328.519 144.736 328.361 145.848 328.295 146.947C328.23 148.043 328.251 149.255 328.272 150.464L328.273 150.501C328.309 152.554 327.278 154.009 325.446 155.047C323.546 156.122 320.87 156.674 318.033 156.724C312.78 156.817 308.686 153.022 308.607 148.526C308.606 148.454 308.605 148.381 308.606 148.307L308.606 148.307L308.606 148.295C308.616 144.674 310.296 139.078 313.867 134.364C317.404 129.694 322.693 126.016 329.897 125.888C337.414 125.755 342.227 127.958 345.298 132.275C348.463 136.724 349.979 143.683 350.153 153.521C350.186 155.43 349.549 156.574 348.735 157.261C347.878 157.986 346.644 158.356 345.278 158.331C343.912 158.306 342.566 157.885 341.595 157.22C340.629 156.558 340.164 155.761 340.15 154.951C340.084 151.242 339.667 148.275 338.957 146.027C338.258 143.814 337.209 142.093 335.72 141.189Z" stroke="#B367FF" stroke-width="3"/>
<path d="M323.522 149.354C319.532 149.425 311.948 148.091 313.535 142.19M326.235 143.434C323.401 142.505 318.138 139.613 319.755 135.474M331.073 138.21C328.474 137.278 323.683 134.524 325.311 130.972M335.298 138.136C334.099 136.689 332.253 133.198 334.464 130.81M338.871 141.008C339.071 139.048 340.316 135.111 343.696 135.051M341.804 147.563C343.412 145.577 346.921 142.187 348.089 144.516" stroke="#B367FF" stroke-width="2" stroke-linecap="round" stroke-linejoin="round"/>
</g>
<g clip-path="url(#clip7)">
<path d="M309.898 86.1827C311.905 86.3503 313.895 85.7139 315.432 84.4138C316.969 83.1136 317.927 81.256 318.095 79.2498C319.909 57.5242 303.769 38.4433 282.043 36.6291C280.037 36.4616 278.046 37.0979 276.509 38.3981C274.972 39.6983 274.015 41.5558 273.847 43.5621C273.679 45.5683 274.316 47.559 275.616 49.0961C276.916 50.6332 278.774 51.5908 280.78 51.7583C287.2 52.2944 293.144 55.3589 297.305 60.2776C301.465 65.1964 303.501 71.5664 302.965 77.9864C302.798 79.9927 303.434 81.9833 304.734 83.5204C306.034 85.0575 307.892 86.0152 309.898 86.1827Z" stroke="#B367FF" stroke-width="3" stroke-linecap="round" stroke-linejoin="round"/>
<path d="M310.826 86.202L314.085 92.5345C314.333 93.0164 314.447 93.556 314.416 94.0971C314.386 94.6382 314.21 95.1612 313.909 95.6118C313.608 96.0623 313.191 96.424 312.703 96.6593C312.215 96.8946 311.672 96.9949 311.132 96.9498L306.92 96.5981C306.38 96.553 305.862 96.3641 305.42 96.0511C304.977 95.7381 304.626 95.3124 304.404 94.8181C304.182 94.3238 304.096 93.779 304.155 93.2402C304.214 92.7015 304.417 92.1884 304.741 91.7543L309.011 86.0474" stroke="#B367FF" stroke-width="3" stroke-linecap="round" stroke-linejoin="round"/>
<path d="M273.831 44.3986L267.498 47.6571C267.016 47.9052 266.477 48.0197 265.936 47.9888C265.395 47.9579 264.872 47.7827 264.421 47.4814C263.971 47.1801 263.609 46.7637 263.374 46.2754C263.138 45.7871 263.038 45.2448 263.083 44.7046L263.435 40.4927C263.48 39.9525 263.669 39.4343 263.982 38.9918C264.295 38.5493 264.72 38.1987 265.215 37.9763C265.709 37.7539 266.254 37.6679 266.793 37.7272C267.331 37.7864 267.844 37.9888 268.279 38.3133L273.988 42.5836" stroke="#B367FF" stroke-width="3" stroke-linecap="round" stroke-linejoin="round"/>
</g>
<defs>
<clipPath id="clip0">
<rect width="79.7866" height="74.0875" fill="white" transform="translate(-12 58.8301) rotate(-74.3538)"/>
</clipPath>
<clipPath id="clip1">
<rect width="51.6518" height="55.0204" fill="white" transform="translate(172 39.9561) rotate(-39.6457)"/>
</clipPath>
<clipPath id="clip2">
<rect width="41.5727" height="41.5727" fill="white" transform="translate(328.131 37.7559) rotate(-77.7441)"/>
</clipPath>
<clipPath id="clip3">
<rect width="63.0882" height="63.0882" fill="white" transform="translate(13.7832 143.43) rotate(25.0195)"/>
</clipPath>
<clipPath id="clip4">
<rect width="64.7007" height="64.7007" fill="white" transform="translate(289.764 89.0146) rotate(128.338)"/>
</clipPath>
<clipPath id="clip5">
<rect width="29" height="42" fill="white" transform="translate(42 93)"/>
</clipPath>
<clipPath id="clip6">
<rect width="52.8412" height="50.7056" fill="white" transform="translate(303.596 177.599) rotate(-91.0129)"/>
</clipPath>
<clipPath id="clip7">
<rect width="72.873" height="72.873" fill="white" transform="translate(325.15 104.214) rotate(-175.227)"/>
</clipPath>
</defs>
</svg>
