<svg width="20" height="36" viewBox="0 0 20 36" fill="none" xmlns="http://www.w3.org/2000/svg">
<path fill-rule="evenodd" clip-rule="evenodd" d="M3.8125 1.98551C3.8125 1.44123 4.31618 1 4.9375 1H15.0625C15.6838 1 16.1875 1.44123 16.1875 1.98551V4.94203C16.1875 5.48631 15.6838 5.92754 15.0625 5.92754H13.9376C13.9375 6.0431 13.8908 6.15589 13.8056 6.24475C13.8063 6.25681 13.8074 6.27104 13.8093 6.28765C13.8274 6.44769 13.8972 6.69713 14.0288 7.03614C14.2886 7.7051 14.7438 8.61002 15.3015 9.61766C16.4135 11.6272 17.8968 13.981 18.9243 15.5357L19 15.6503V31.5507C19 32.0657 18.9422 32.8467 18.7595 33.5135C18.6691 33.8433 18.5385 34.1828 18.3404 34.4513C18.1428 34.7192 17.8098 35 17.3125 35H2.55471L2.43594 34.948C2.08541 34.7944 1.73125 34.4323 1.46852 33.903C1.19752 33.357 1 32.5897 1 31.5507V15.6602L1.06537 15.5521C1.9047 14.1632 3.13508 12.0073 4.09771 10.056C4.57967 9.07901 4.98895 8.16445 5.24917 7.42795C5.37953 7.05899 5.46812 6.74679 5.51169 6.50053C5.55852 6.23587 5.5404 6.11366 5.52887 6.08336C5.5092 6.03168 5.49986 5.97917 5.49985 5.92754H4.9375C4.31618 5.92754 3.8125 5.48631 3.8125 4.94203V1.98551ZM4.9375 1.98551H15.0625V4.94203H4.9375L4.9375 1.98551ZM6.64087 5.92754C6.68784 6.15721 6.66563 6.41292 6.62342 6.65148C6.56811 6.96406 6.46246 7.32709 6.32387 7.71933C6.0462 8.50523 5.61876 9.45698 5.13041 10.4469C4.17726 12.379 2.97084 14.4991 2.125 15.9048V17.8828C2.77619 18.0709 3.59656 18.3625 4.31081 18.7344C4.74704 18.9615 5.16911 19.2315 5.48834 19.5437C5.8061 19.8545 6.0625 20.2482 6.0625 20.7101C6.0625 20.9257 6.15636 21.0596 6.29259 21.152C6.44499 21.2554 6.68428 21.3261 6.97656 21.3261C7.57859 21.3261 8.15689 21.0391 8.34137 20.5543C8.61175 19.8437 9.2114 19.2403 9.79682 18.7883C10.3892 18.3309 11.021 17.9874 11.4359 17.8056L11.4912 17.7815L11.5511 17.7683C11.9497 17.681 12.5759 17.5761 13.1729 17.5451C13.4705 17.5296 13.7823 17.5313 14.064 17.5703C14.328 17.6068 14.6581 17.688 14.8977 17.8979C15.0295 18.0134 15.1416 18.1771 15.2295 18.315C15.3155 18.45 15.4093 18.611 15.5054 18.7763L15.5372 18.8309C15.7581 19.2101 16.0063 19.6288 16.2984 19.9985C16.5952 20.3741 16.8999 20.6495 17.2078 20.7871C17.4049 20.8752 17.6188 20.9151 17.875 20.8632V15.9148C16.8437 14.349 15.3905 12.0376 14.2892 10.0476C13.7265 9.0308 13.2466 8.08174 12.9638 7.35354C12.8241 6.99396 12.7208 6.65902 12.6898 6.3847C12.6745 6.24933 12.6724 6.09405 12.7164 5.94527C12.7181 5.93941 12.7199 5.9335 12.7219 5.92754H6.64087ZM16.6965 21.6649C17.0588 21.8268 17.4554 21.9012 17.875 21.8611V31.5507C17.875 32.0213 17.8203 32.7185 17.6655 33.2836C17.5871 33.5698 17.4928 33.7846 17.3955 33.9164C17.3479 33.981 17.3158 34.0059 17.3008 34.0145H2.86572C2.84296 33.9953 2.81667 33.9707 2.78773 33.9399C2.70197 33.8487 2.59921 33.7095 2.50023 33.51C2.30248 33.1116 2.125 32.4828 2.125 31.5507V18.9263C2.64291 19.0926 3.22682 19.3165 3.73607 19.5816C4.12015 19.7815 4.43636 19.9919 4.65033 20.2012C4.86577 20.4119 4.9375 20.5808 4.9375 20.7101C4.9375 21.2337 5.19521 21.6541 5.60389 21.9313C5.99641 22.1975 6.49541 22.3116 6.97656 22.3116C7.92141 22.3116 9.03061 21.8594 9.40863 20.866C9.58825 20.3939 10.0199 19.9298 10.5407 19.5276C11.0276 19.1517 11.5466 18.8652 11.8847 18.7114C12.2372 18.6374 12.7588 18.5538 13.2396 18.5288C13.4951 18.5156 13.7177 18.5201 13.8884 18.5437C14.0317 18.5635 14.0892 18.5902 14.1021 18.5962L14.1047 18.5973C14.1099 18.6028 14.1231 18.6173 14.1443 18.6452C14.1727 18.6823 14.2067 18.7318 14.2473 18.7956C14.3223 18.9132 14.4058 19.0567 14.5049 19.2269L14.5351 19.2787C14.7537 19.6541 15.0328 20.1284 15.3735 20.5595C15.7095 20.9846 16.1431 21.4176 16.6965 21.6649ZM17.2911 34.0184C17.2911 34.0184 17.2936 34.0167 17.2986 34.0157C17.2936 34.0183 17.2911 34.0184 17.2911 34.0184Z" fill="white" stroke="white" stroke-width="0.5" stroke-linecap="round"/>
</svg>
