<svg width="30" height="32" viewBox="0 0 30 32" fill="none" xmlns="http://www.w3.org/2000/svg">
<path d="M8.58844 20.5034C8.97343 21.3759 9.46613 22.0888 9.91614 22.5776C10.0457 22.7369 10.2042 22.902 10.3899 23.064M8.58844 20.5034C7.58961 18.2395 7.31577 14.9008 10.3934 11.6125C11.1658 8.44869 14.0535 1.96148 19.4247 1.32271C24.7959 0.683942 27.9562 5.95036 28.8649 8.66342C29.5376 12.9149 28.5468 21.5348 19.2021 22.0033C15.0796 25.4589 11.8695 24.3554 10.3899 23.064M8.58844 20.5034L4.56637 24.5645C3.97366 24.0081 2.59495 23.055 1.82174 23.6941C0.855231 24.4929 0.963698 25.5401 1.25514 26.2748C1.54658 27.0096 2.43563 27.8442 3.39698 27.5247C3.26837 28.3493 3.30937 30.1032 4.50224 30.5222C5.69512 30.9411 6.63965 30.3307 6.9628 29.9731C7.24833 29.4034 7.53443 28.038 6.39467 27.134L10.3899 23.064" stroke="white" stroke-width="1.5" stroke-linecap="round"/>
</svg>
