<svg width="32" height="24" viewBox="0 0 32 24" fill="none" xmlns="http://www.w3.org/2000/svg">
<mask id="path-1-inside-1" fill="white">
<path fill-rule="evenodd" clip-rule="evenodd" d="M3.32307 0C1.48779 0 0 1.48779 0 3.32308C0 5.00632 1.2515 6.39726 2.87476 6.61617V21.3972C2.87476 22.8347 4.0401 24.0001 5.47763 24.0001C6.91515 24.0001 8.0805 22.8347 8.0805 21.3972V6.64615H22.4728V21.3972C22.4728 22.8347 23.6381 24.0001 25.0756 24.0001C26.5132 24.0001 27.6785 22.8347 27.6785 21.3972V6.64615H28.6769C30.5122 6.64615 32 5.15836 32 3.32308C32 1.48779 30.5122 0 28.6769 0H3.32307ZM23.9728 6.64615H26.1785V21.3972C26.1785 22.0063 25.6847 22.5001 25.0756 22.5001C24.4666 22.5001 23.9728 22.0063 23.9728 21.3972V6.64615ZM4.37476 6.64615H6.5805V21.3972C6.5805 22.0063 6.08673 22.5001 5.47763 22.5001C4.86853 22.5001 4.37476 22.0063 4.37476 21.3972V6.64615Z"/>
</mask>
<path d="M2.87476 6.61617H4.37476V5.30487L3.07523 5.12962L2.87476 6.61617ZM8.0805 6.64615V5.14615H6.5805V6.64615H8.0805ZM22.4728 6.64615H23.9728V5.14615H22.4728V6.64615ZM27.6785 6.64615V5.14615H26.1785V6.64615H27.6785ZM26.1785 6.64615H27.6785V5.14615H26.1785V6.64615ZM23.9728 6.64615V5.14615H22.4728V6.64615H23.9728ZM6.5805 6.64615H8.0805V5.14615H6.5805V6.64615ZM4.37476 6.64615V5.14615H2.87476V6.64615H4.37476ZM1.5 3.32308C1.5 2.31622 2.31622 1.5 3.32307 1.5V-1.5C0.659364 -1.5 -1.5 0.659365 -1.5 3.32308H1.5ZM3.07523 5.12962C2.18616 5.00973 1.5 4.2453 1.5 3.32308H-1.5C-1.5 5.76734 0.316832 7.78479 2.67429 8.10271L3.07523 5.12962ZM4.37476 21.3972V6.61617H1.37476V21.3972H4.37476ZM5.47763 22.5001C4.86853 22.5001 4.37476 22.0063 4.37476 21.3972H1.37476C1.37476 23.6632 3.21167 25.5001 5.47763 25.5001V22.5001ZM6.5805 21.3972C6.5805 22.0063 6.08672 22.5001 5.47763 22.5001V25.5001C7.74358 25.5001 9.5805 23.6632 9.5805 21.3972H6.5805ZM6.5805 6.64615V21.3972H9.5805V6.64615H6.5805ZM22.4728 5.14615H8.0805V8.14615H22.4728V5.14615ZM23.9728 21.3972V6.64615H20.9728V21.3972H23.9728ZM25.0756 22.5001C24.4666 22.5001 23.9728 22.0063 23.9728 21.3972H20.9728C20.9728 23.6632 22.8097 25.5001 25.0756 25.5001V22.5001ZM26.1785 21.3972C26.1785 22.0063 25.6847 22.5001 25.0756 22.5001V25.5001C27.3416 25.5001 29.1785 23.6632 29.1785 21.3972H26.1785ZM26.1785 6.64615V21.3972H29.1785V6.64615H26.1785ZM28.6769 5.14615H27.6785V8.14615H28.6769V5.14615ZM30.5 3.32308C30.5 4.32993 29.6838 5.14615 28.6769 5.14615V8.14615C31.3406 8.14615 33.5 5.98678 33.5 3.32308H30.5ZM28.6769 1.5C29.6838 1.5 30.5 2.31622 30.5 3.32308H33.5C33.5 0.659365 31.3406 -1.5 28.6769 -1.5V1.5ZM3.32307 1.5H28.6769V-1.5H3.32307V1.5ZM26.1785 5.14615H23.9728V8.14615H26.1785V5.14615ZM24.6785 6.64615V21.3972H27.6785V6.64615H24.6785ZM24.6785 21.3972C24.6785 21.1779 24.8563 21.0001 25.0756 21.0001V24.0001C26.5132 24.0001 27.6785 22.8347 27.6785 21.3972H24.6785ZM25.0756 21.0001C25.295 21.0001 25.4728 21.1779 25.4728 21.3972H22.4728C22.4728 22.8347 23.6381 24.0001 25.0756 24.0001V21.0001ZM25.4728 21.3972V6.64615H22.4728V21.3972H25.4728ZM6.5805 5.14615H4.37476V8.14615H6.5805V5.14615ZM5.0805 6.64615V21.3972H8.0805V6.64615H5.0805ZM5.0805 21.3972C5.0805 21.1779 5.2583 21.0001 5.47763 21.0001V24.0001C6.91515 24.0001 8.0805 22.8347 8.0805 21.3972H5.0805ZM5.47763 21.0001C5.69696 21.0001 5.87476 21.1779 5.87476 21.3972H2.87476C2.87476 22.8347 4.0401 24.0001 5.47763 24.0001V21.0001ZM5.87476 21.3972V6.64615H2.87476V21.3972H5.87476Z" fill="white" mask="url(#path-1-inside-1)"/>
</svg>
