<svg width="23" height="30" viewBox="0 0 23 30" fill="none" xmlns="http://www.w3.org/2000/svg">
<path d="M9.32745 7.73026H8.3298C6.62547 8.04122 3.00481 9.90699 2.1568 14.8824V25.8282C1.28385 26.8233 0.0617233 28.8507 2.1568 29H20.7381C21.7981 28.8756 23.2822 28.0671 20.7381 25.8282V14.8824C20.5095 12.6849 18.9299 8.17805 14.4404 7.73026H9.32745ZM9.32745 7.73026L5.14976 4.18531C5.85644 3.19023 7.55661 1.53592 8.70391 2.87927C9.85122 4.22262 9.59765 6.67299 9.32745 7.73026ZM9.32745 7.73026L9.36804 7.66278M9.36804 7.66278L12.8816 1.822C14.0247 1.13788 16.4357 0.242315 16.9346 2.13296C17.4334 4.0236 12.0981 6.60727 9.36804 7.66278Z" stroke="white" stroke-width="1.5" stroke-linecap="round"/>
<path d="M7.67959 22.1835C7.16949 22.1835 6.70829 22.1066 6.29601 21.9526C5.89072 21.7987 5.56929 21.577 5.3317 21.2876C5.09412 20.9982 4.97183 20.6565 4.96484 20.2624H6.53709C6.55806 20.5272 6.66287 20.7365 6.85154 20.8905C7.0472 21.0444 7.31274 21.1214 7.64815 21.1214C7.99055 21.1214 8.25958 21.0506 8.45524 20.9089C8.65089 20.7612 8.74872 20.5703 8.74872 20.3363C8.74872 20.1454 8.68234 19.9884 8.54957 19.8652C8.4168 19.7421 8.2491 19.6466 8.04645 19.5789C7.85079 19.505 7.57827 19.425 7.22888 19.3388C6.75371 19.2156 6.36589 19.0955 6.06542 18.9785C5.77193 18.8554 5.51688 18.6737 5.30026 18.4336C5.09062 18.1873 4.98581 17.8609 4.98581 17.4545C4.98581 17.0728 5.09412 16.7403 5.31074 16.457C5.52736 16.1738 5.83133 15.9582 6.22264 15.8105C6.61396 15.6565 7.06118 15.5796 7.5643 15.5796C8.31898 15.5796 8.93041 15.7427 9.39859 16.0691C9.87376 16.3893 10.1358 16.8388 10.1847 17.4176H8.57054C8.55656 17.1959 8.44825 17.0143 8.2456 16.8726C8.04995 16.7249 7.7879 16.651 7.45948 16.651C7.17298 16.651 6.94238 16.7156 6.76769 16.8449C6.59998 16.9742 6.51613 17.1621 6.51613 17.4084C6.51613 17.5808 6.57902 17.7255 6.7048 17.8425C6.83757 17.9533 6.99829 18.0457 7.18696 18.1196C7.38261 18.1873 7.65514 18.2673 8.00453 18.3597C8.47969 18.4829 8.86752 18.606 9.16799 18.7292C9.46846 18.8523 9.72701 19.037 9.94363 19.2833C10.1603 19.5296 10.2686 19.8529 10.2686 20.2532C10.2686 20.598 10.1672 20.9182 9.9646 21.2137C9.76195 21.5093 9.46497 21.7464 9.07366 21.9249C8.68234 22.0973 8.21765 22.1835 7.67959 22.1835Z" fill="white"/>
<path d="M15.4714 13.3721L12.6414 23.7907H11.2054L14.0354 13.3721H15.4714Z" fill="white"/>
<path d="M17.2882 22.1835C17.0226 22.1835 16.8025 22.1127 16.6278 21.9711C16.4601 21.8233 16.3763 21.6417 16.3763 21.4262C16.3763 21.2107 16.4601 21.0321 16.6278 20.8905C16.8025 20.7427 17.0226 20.6688 17.2882 20.6688C17.5467 20.6688 17.7598 20.7427 17.9275 20.8905C18.0953 21.0321 18.1791 21.2107 18.1791 21.4262C18.1791 21.6417 18.0953 21.8233 17.9275 21.9711C17.7598 22.1127 17.5467 22.1835 17.2882 22.1835Z" fill="white"/>
</svg>
