<svg width="37" height="94" viewBox="0 0 37 94" fill="none" xmlns="http://www.w3.org/2000/svg">
<path d="M36.1069 2.28318V15.8242L36.124 29.7037L36.134 37.5322L36.1214 45.6145L36.0839 61.5252L36.0657 68.8459L36.0672 72.2365L36.089 75.4049L36.1126 78.3194L36.1626 80.9483C36.1836 82.5988 36.2435 84.0375 36.2855 85.2223C36.3204 86.4072 36.3848 87.3381 36.413 87.9729L36.4731 88.9463C36.6071 91.1123 34.9771 92.9779 32.8322 93.1132C30.6873 93.2485 28.8399 91.6024 28.7059 89.4364C28.6993 89.3279 28.697 89.2191 28.699 89.1104L28.7029 88.9463L28.7084 88.6978C28.7131 88.5338 28.7147 88.2905 28.7288 87.9731C28.7581 87.3383 28.7751 86.4074 28.8495 85.2225C28.9158 84.0377 28.9863 82.599 29.1203 80.9486L29.3154 78.3196C29.3945 77.394 29.48 76.4207 29.6037 75.4051C29.6586 74.8973 29.7269 74.379 29.7991 73.8507C29.8664 73.3223 29.9477 72.7842 30.0295 72.2367C30.1945 71.1418 30.3874 70.0099 30.5731 68.8461C30.7581 67.6825 30.9648 66.4869 31.1347 65.2652C31.2982 64.0433 31.4564 62.7951 31.54 61.5256C31.5984 60.8908 31.6098 60.2508 31.6455 59.6063L31.6612 58.636C31.6667 58.3115 31.673 57.9857 31.6628 57.6591C31.6516 57.006 31.6444 56.3487 31.602 55.6881L31.5496 54.695C31.5233 54.3633 31.4988 54.0305 31.4597 53.6973C31.3225 52.3644 31.0513 51.0208 30.6863 49.6721C30.3213 48.3233 29.835 46.9692 29.3217 45.6151C28.8132 44.261 28.2781 42.907 27.8379 41.5582C27.7186 41.2209 27.6267 40.884 27.5202 40.5476C27.412 40.2111 27.3245 39.8751 27.2354 39.5396C27.0466 38.8685 26.8989 38.1993 26.7652 37.533C26.6298 36.8664 26.535 36.2028 26.4324 35.5422C26.3341 34.8816 26.2246 34.2245 26.1371 33.5712C25.9495 32.2646 25.774 30.974 25.6716 29.7045C25.5654 28.435 25.5268 27.1868 25.5654 25.9649C25.6025 24.743 25.713 23.5476 25.8639 22.384C26.0166 21.2204 26.2156 20.0885 26.4322 18.9934L26.5884 18.1792C26.6434 17.9103 26.7077 17.6436 26.766 17.3794C26.8893 16.8511 26.9929 16.3328 27.1259 15.825C27.6214 13.7938 28.2056 11.932 28.7855 10.2815C29.3688 8.63114 29.9632 7.19241 30.517 6.00757C31.068 4.82273 31.5604 3.89179 31.9279 3.25696C32.1159 2.93964 32.2557 2.69625 32.3571 2.53234L32.5167 2.2838L33.095 1.38354C33.2121 1.20127 33.3635 1.04406 33.5408 0.920908C33.718 0.797754 33.9175 0.711062 34.1279 0.665782C34.3383 0.620502 34.5555 0.617522 34.767 0.657011C34.9786 0.696501 35.1804 0.777687 35.3608 0.895933C35.8402 1.20975 36.1028 1.74574 36.1069 2.28318Z" fill="#BEBEBE"/>
<path d="M12.7225 6.38538C12.2168 6.38538 11.8219 6.73934 11.618 7.21501L11.618 23.4662C11.618 23.9359 11.2675 24.3167 10.8023 24.3167C10.3372 24.3167 9.98672 23.9359 9.98672 23.4662L9.98672 7.27658C9.78281 6.77003 9.35583 6.38538 8.82833 6.38538C8.38381 6.38538 7.94766 6.65842 7.74375 7.0476L7.74375 23.4662C7.74375 23.9359 7.41322 24.3167 6.94811 24.3167C6.50583 24.3167 6.19386 23.9714 6.15919 23.5336H6.1125L6.1125 7.46849C6.1125 6.87031 5.68532 6.38538 5.09297 6.38538C4.50062 6.38538 4.07344 6.87031 4.07344 7.46849L4.07344 23.5338H4.01553C3.98086 23.9714 3.57264 24.3169 3.13037 24.3169C2.66526 24.3169 2.23828 23.9361 2.23828 23.4665L2.23828 7.02289C2.23828 6.6473 1.70568 6.38538 1.27095 6.38538C1.13015 6.3854 0.990729 6.41344 0.86066 6.46789C0.73059 6.52235 0.612418 6.60214 0.512893 6.70272C0.413368 6.8033 0.334441 6.9227 0.28062 7.05409C0.226799 7.18549 0.199139 7.3263 0.199219 7.46849L0.199219 31.9763H0.203909C0.202889 32.1822 0.200238 32.119 0.200238 32.1693C0.200238 35.0086 1.91692 37.4722 4.35727 38.5141C4.36482 39.5165 4.35401 40.6439 4.3532 41.8557C4.34953 43.1604 4.32445 44.5794 4.30956 46.0743L4.21556 50.7795L4.06814 55.8093C4.04652 56.6655 4.00533 57.5294 3.97108 58.3956C3.93498 59.2621 3.90338 60.1321 3.85261 61.0021C3.76635 62.7417 3.65625 64.4815 3.54287 66.1941L3.19073 71.2227C3.07736 72.8536 2.96133 74.4303 2.87773 75.9252C2.78108 77.4202 2.7197 78.8338 2.65282 80.1384C2.59043 81.4431 2.54924 82.6393 2.53354 83.6993C2.51355 84.7594 2.51722 85.6835 2.52946 86.4446C2.54067 87.2057 2.56412 87.8036 2.58329 88.2113L2.6204 88.8365C2.74886 91.0431 4.49389 92.8543 6.73299 92.9896C9.14907 93.1356 11.2248 91.2762 11.3694 88.8365L11.4065 88.2113C11.4257 87.8036 11.4493 87.2057 11.4603 86.4446C11.4726 85.6835 11.476 84.7594 11.4563 83.6993C11.4406 82.6393 11.3994 81.4433 11.337 80.1384C11.2701 78.8338 11.2089 77.4204 11.1121 75.9252C11.0285 74.4303 10.9125 72.8536 10.7991 71.2227L10.4469 66.1941C10.3336 64.4817 10.2235 62.7419 10.1372 61.0023C10.0862 60.1325 10.0546 59.2628 10.0187 58.3963C9.98427 57.5298 9.94329 56.6668 9.92167 55.8106L9.77425 50.7819L9.68025 46.0795C9.66536 44.5845 9.64028 43.1709 9.63661 41.8662C9.6358 40.6544 9.62499 39.5379 9.63253 38.5355C12.0729 37.4936 13.7896 35.0084 13.7896 32.1691C13.7896 32.1188 13.7869 32.182 13.7859 31.9761H13.8609L13.8609 7.46849C13.8609 6.87031 13.3149 6.38538 12.7225 6.38538Z" fill="#BEBEBE"/>
</svg>






