<svg width="12" height="20" viewBox="0 0 12 20" fill="none" xmlns="http://www.w3.org/2000/svg">
<path d="M10.1426 7.69009C10.1635 7.5355 10.1234 7.37884 10.0308 7.2533C9.93821 7.12777 9.80034 7.04325 9.64646 7.01765C9.49257 6.99206 9.33477 7.0274 9.20651 7.1162C9.07824 7.20499 8.9896 7.34024 8.95938 7.49329C8.85687 8.10866 8.56507 8.67677 8.12458 9.11854C7.6841 9.56031 7.11685 9.85378 6.50178 9.95809C6.34488 9.98466 6.20496 10.0725 6.1128 10.2022C6.02065 10.332 5.98381 10.493 6.01038 10.6499C6.03696 10.8068 6.12477 10.9467 6.25451 11.0389C6.38425 11.131 6.54528 11.1679 6.70218 11.1413C7.5633 10.9952 8.35745 10.5842 8.97408 9.96566C9.59072 9.34709 9.99917 8.55166 10.1426 7.69009Z" fill="#585858"/>
<path d="M0.6 0.400024C0.44087 0.400024 0.288258 0.463239 0.175736 0.57576C0.0632142 0.688282 4.74008e-10 0.840894 4.74008e-10 1.00002V7.60002C-1.8686e-05 9.08746 0.552461 10.5219 1.55026 11.625C2.54805 12.7281 3.92002 13.4213 5.4 13.57V18.4H3C2.84087 18.4 2.68826 18.4632 2.57574 18.5758C2.46321 18.6883 2.4 18.8409 2.4 19C2.4 19.1592 2.46321 19.3118 2.57574 19.4243C2.68826 19.5368 2.84087 19.6 3 19.6H9C9.15913 19.6 9.31174 19.5368 9.42426 19.4243C9.53679 19.3118 9.6 19.1592 9.6 19C9.6 18.8409 9.53679 18.6883 9.42426 18.5758C9.31174 18.4632 9.15913 18.4 9 18.4H6.6V13.6V13.57C8.07998 13.4213 9.45195 12.7281 10.4497 11.625C11.4475 10.5219 12 9.08746 12 7.60002V1.00002C12 0.840894 11.9368 0.688282 11.8243 0.57576C11.7117 0.463239 11.5591 0.400024 11.4 0.400024H0.6ZM1.2 4.60002V1.60002H10.8V4.60002H1.2ZM1.2 5.80002H10.8V7.60002C10.8 8.87306 10.2943 10.094 9.39411 10.9941C8.49394 11.8943 7.27304 12.4 6 12.4C4.72696 12.4 3.50606 11.8943 2.60589 10.9941C1.70571 10.094 1.2 8.87306 1.2 7.60002V5.80002Z" fill="#585858"/>
</svg>
