<svg width="51" height="82" viewBox="0 0 51 82" fill="none" xmlns="http://www.w3.org/2000/svg">
<path d="M2.55 0C1.8737 0 1.2251 0.26866 0.746878 0.746878C0.26866 1.2251 2.01453e-09 1.8737 2.01453e-09 2.55V30.6C-7.94155e-05 36.9216 2.34796 43.0179 6.58859 47.7061C10.8292 52.3944 16.6601 55.3403 22.95 55.9725V76.5H12.75C12.0737 76.5 11.4251 76.7687 10.9469 77.2469C10.4687 77.7251 10.2 78.3737 10.2 79.05C10.2 79.7263 10.4687 80.3749 10.9469 80.8531C11.4251 81.3313 12.0737 81.6 12.75 81.6H38.25C38.9263 81.6 39.5749 81.3313 40.0531 80.8531C40.5313 80.3749 40.8 79.7263 40.8 79.05C40.8 78.3737 40.5313 77.7251 40.0531 77.2469C39.5749 76.7687 38.9263 76.5 38.25 76.5H28.05V56.1V55.9725C34.3399 55.3403 40.1708 52.3944 44.4114 47.7061C48.652 43.0179 51.0001 36.9216 51 30.6V2.55C51 1.8737 50.7313 1.2251 50.2531 0.746878C49.7749 0.26866 49.1263 0 48.45 0H2.55ZM5.1 17.85V5.1H45.9V17.85H5.1ZM43.1052 30.9825C42.4957 34.6442 40.7598 38.0248 38.1391 40.6537C35.5184 43.2826 32.1433 45.0291 28.4835 45.6501C28.1533 45.706 27.8154 45.6964 27.4889 45.6217C27.1625 45.547 26.8539 45.4087 26.5809 45.2148C26.3079 45.0209 26.0757 44.7751 25.8977 44.4914C25.7197 44.2078 25.5993 43.8918 25.5434 43.5616C25.4874 43.2315 25.4971 42.8935 25.5718 42.5671C25.6465 42.2406 25.7847 41.9321 25.9786 41.659C26.1726 41.386 26.4184 41.1539 26.702 40.9759C26.9857 40.7978 27.3016 40.6774 27.6318 40.6215C30.2458 40.1782 32.6567 38.931 34.5287 37.0534C36.4008 35.1759 37.6409 32.7614 38.0766 30.1461C38.205 29.4957 38.5818 28.9208 39.1269 28.5435C39.672 28.1661 40.3427 28.0159 40.9967 28.1247C41.6507 28.2334 42.2366 28.5927 42.6302 29.1262C43.0239 29.6597 43.1942 30.3255 43.1052 30.9825Z" fill="#BEBEBE"/>
</svg>

