<svg width="20" height="20" viewBox="0 0 20 20" fill="none" xmlns="http://www.w3.org/2000/svg">
<path d="M10 20C15.5228 20 20 15.5228 20 10C20 4.47715 15.5228 0 10 0C4.47715 0 0 4.47715 0 10C0 15.5228 4.47715 20 10 20Z" fill="#51A9DB"/>
<path d="M12.25 5.81078C12.4489 5.61187 12.7187 5.50012 13 5.50012C13.1393 5.50012 13.2772 5.52756 13.4059 5.58086C13.5346 5.63416 13.6515 5.71229 13.75 5.81078C13.8485 5.90927 13.9266 6.0262 13.9799 6.15488C14.0332 6.28357 14.0607 6.42149 14.0607 6.56078C14.0607 6.70007 14.0332 6.83799 13.9799 6.96668C13.9266 7.09536 13.8485 7.21229 13.75 7.31078L7.5 13.5608L5.5 14.0608L6 12.0608L12.25 5.81078Z" fill="white" stroke="white" stroke-linecap="round" stroke-linejoin="round"/>
</svg>
