<svg width="190" height="190" viewBox="0 0 190 190" fill="none" xmlns="http://www.w3.org/2000/svg">
<g filter="url(#filter0_d)">
<circle cx="95" cy="95" r="75" fill="#EEEEEE"/>
</g>
<g filter="url(#filter1_i)">
<circle cx="95" cy="95" r="56.25" fill="#EEEEEE"/>
</g>
<path d="M111.107 56.2832V69.8242L111.124 83.7037L111.134 91.5322L111.121 99.6145L111.084 115.525L111.066 122.846L111.067 126.236L111.089 129.405L111.113 132.319L111.163 134.948C111.184 136.599 111.244 138.037 111.286 139.222C111.32 140.407 111.385 141.338 111.413 141.973L111.473 142.946C111.607 145.112 109.977 146.978 107.832 147.113C105.687 147.248 103.84 145.602 103.706 143.436C103.699 143.328 103.697 143.219 103.699 143.11L103.703 142.946L103.708 142.698C103.713 142.534 103.715 142.29 103.729 141.973C103.758 141.338 103.775 140.407 103.849 139.223C103.916 138.038 103.986 136.599 104.12 134.949L104.315 132.32C104.395 131.394 104.48 130.421 104.604 129.405C104.659 128.897 104.727 128.379 104.799 127.851C104.866 127.322 104.948 126.784 105.029 126.237C105.194 125.142 105.387 124.01 105.573 122.846C105.758 121.682 105.965 120.487 106.135 119.265C106.298 118.043 106.456 116.795 106.54 115.526C106.598 114.891 106.61 114.251 106.645 113.606L106.661 112.636C106.667 112.311 106.673 111.986 106.663 111.659C106.652 111.006 106.644 110.349 106.602 109.688L106.55 108.695C106.523 108.363 106.499 108.03 106.46 107.697C106.322 106.364 106.051 105.021 105.686 103.672C105.321 102.323 104.835 100.969 104.322 99.6151C103.813 98.261 103.278 96.907 102.838 95.5582C102.719 95.2209 102.627 94.884 102.52 94.5476C102.412 94.2111 102.324 93.8751 102.235 93.5396C102.047 92.8685 101.899 92.1993 101.765 91.533C101.63 90.8664 101.535 90.2028 101.432 89.5422C101.334 88.8816 101.225 88.2245 101.137 87.5712C100.95 86.2646 100.774 84.974 100.672 83.7045C100.565 82.435 100.527 81.1868 100.565 79.9649C100.602 78.743 100.713 77.5476 100.864 76.384C101.017 75.2204 101.216 74.0885 101.432 72.9934L101.588 72.1792C101.643 71.9103 101.708 71.6436 101.766 71.3794C101.889 70.8511 101.993 70.3328 102.126 69.825C102.621 67.7938 103.206 65.932 103.785 64.2815C104.369 62.6311 104.963 61.1924 105.517 60.0076C106.068 58.8227 106.56 57.8918 106.928 57.257C107.116 56.9396 107.256 56.6962 107.357 56.5323L107.517 56.2838L108.095 55.3835C108.212 55.2013 108.364 55.0441 108.541 54.9209C108.718 54.7978 108.918 54.7111 109.128 54.6658C109.338 54.6205 109.555 54.6175 109.767 54.657C109.979 54.6965 110.18 54.7777 110.361 54.8959C110.84 55.2097 111.103 55.7457 111.107 56.2832Z" fill="#BEBEBE"/>
<path d="M87.7225 60.3854C87.2168 60.3854 86.8219 60.7393 86.618 61.215V77.4662C86.618 77.9359 86.2675 78.3167 85.8023 78.3167C85.3372 78.3167 84.9867 77.9359 84.9867 77.4662V61.2766C84.7828 60.77 84.3558 60.3854 83.8283 60.3854C83.3838 60.3854 82.9477 60.6584 82.7437 61.0476V77.4662C82.7437 77.9359 82.4132 78.3167 81.9481 78.3167C81.5058 78.3167 81.1939 77.9714 81.1592 77.5336H81.1125V61.4685C81.1125 60.8703 80.6853 60.3854 80.093 60.3854C79.5006 60.3854 79.0734 60.8703 79.0734 61.4685V77.5338H79.0155C78.9809 77.9714 78.5726 78.3169 78.1304 78.3169C77.6653 78.3169 77.2383 77.9361 77.2383 77.4665V61.0229C77.2383 60.6473 76.7057 60.3854 76.271 60.3854C76.1301 60.3854 75.9907 60.4134 75.8607 60.4679C75.7306 60.5223 75.6124 60.6021 75.5129 60.7027C75.4134 60.8033 75.3344 60.9227 75.2806 61.0541C75.2268 61.1855 75.1991 61.3263 75.1992 61.4685V85.9763H75.2039C75.2029 86.1822 75.2002 86.119 75.2002 86.1693C75.2002 89.0086 76.9169 91.4722 79.3573 92.5141C79.3648 93.5165 79.354 94.6439 79.3532 95.8557C79.3495 97.1604 79.3244 98.5794 79.3096 100.074L79.2156 104.779L79.0681 109.809C79.0465 110.666 79.0053 111.529 78.9711 112.396C78.935 113.262 78.9034 114.132 78.8526 115.002C78.7664 116.742 78.6562 118.481 78.5429 120.194L78.1907 125.223C78.0774 126.854 77.9613 128.43 77.8777 129.925C77.7811 131.42 77.7197 132.834 77.6528 134.138C77.5904 135.443 77.5492 136.639 77.5335 137.699C77.5136 138.759 77.5172 139.684 77.5295 140.445C77.5407 141.206 77.5641 141.804 77.5833 142.211L77.6204 142.837C77.7489 145.043 79.4939 146.854 81.733 146.99C84.1491 147.136 86.2248 145.276 86.3694 142.837L86.4065 142.211C86.4257 141.804 86.4493 141.206 86.4603 140.445C86.4726 139.684 86.476 138.759 86.4563 137.699C86.4406 136.639 86.3994 135.443 86.337 134.138C86.2701 132.834 86.2089 131.42 86.1121 129.925C86.0285 128.43 85.9125 126.854 85.7991 125.223L85.4469 120.194C85.3336 118.482 85.2235 116.742 85.1372 115.002C85.0862 114.133 85.0546 113.263 85.0187 112.396C84.9843 111.53 84.9433 110.667 84.9217 109.811L84.7742 104.782L84.6802 100.079C84.6654 98.5845 84.6403 97.1709 84.6366 95.8662C84.6358 94.6544 84.625 93.5379 84.6325 92.5355C87.0729 91.4936 88.7896 89.0084 88.7896 86.1691C88.7896 86.1188 88.7869 86.182 88.7859 85.9761H88.8609V61.4685C88.8609 60.8703 88.3149 60.3854 87.7225 60.3854Z" fill="#BEBEBE"/>
<defs>
<filter id="filter0_d" x="0" y="0" width="190" height="190" filterUnits="userSpaceOnUse" color-interpolation-filters="sRGB">
<feFlood flood-opacity="0" result="BackgroundImageFix"/>
<feColorMatrix in="SourceAlpha" type="matrix" values="0 0 0 0 0 0 0 0 0 0 0 0 0 0 0 0 0 0 127 0" result="hardAlpha"/>
<feOffset/>
<feGaussianBlur stdDeviation="10"/>
<feComposite in2="hardAlpha" operator="out"/>
<feColorMatrix type="matrix" values="0 0 0 0 0.345098 0 0 0 0 0.345098 0 0 0 0 0.345098 0 0 0 0.3 0"/>
<feBlend mode="normal" in2="BackgroundImageFix" result="effect1_dropShadow"/>
<feBlend mode="normal" in="SourceGraphic" in2="effect1_dropShadow" result="shape"/>
</filter>
<filter id="filter1_i" x="38.75" y="38.75" width="112.5" height="112.5" filterUnits="userSpaceOnUse" color-interpolation-filters="sRGB">
<feFlood flood-opacity="0" result="BackgroundImageFix"/>
<feBlend mode="normal" in="SourceGraphic" in2="BackgroundImageFix" result="shape"/>
<feColorMatrix in="SourceAlpha" type="matrix" values="0 0 0 0 0 0 0 0 0 0 0 0 0 0 0 0 0 0 127 0" result="hardAlpha"/>
<feOffset/>
<feGaussianBlur stdDeviation="10"/>
<feComposite in2="hardAlpha" operator="arithmetic" k2="-1" k3="1"/>
<feColorMatrix type="matrix" values="0 0 0 0 0 0 0 0 0 0 0 0 0 0 0 0 0 0 0.2 0"/>
<feBlend mode="normal" in2="shape" result="effect1_innerShadow"/>
</filter>
</defs>
</svg>






