<svg width="24" height="17" viewBox="0 0 24 17" fill="none" xmlns="http://www.w3.org/2000/svg">
<path d="M22.2857 0H13.7143C13.2596 0 12.8236 0.179107 12.5021 0.497919C12.1806 0.816731 12 1.24913 12 1.7C12 2.15087 12.1806 2.58327 12.5021 2.90208C12.8236 3.22089 13.2596 3.4 13.7143 3.4H22.2857C22.7404 3.4 23.1764 3.22089 23.4979 2.90208C23.8194 2.58327 24 2.15087 24 1.7C24 1.24913 23.8194 0.816731 23.4979 0.497919C23.1764 0.179107 22.7404 0 22.2857 0ZM10.2857 13.6H1.71428C1.25963 13.6 0.823593 13.7791 0.502102 14.0979C0.180611 14.4167 0 14.8491 0 15.3C0 15.7509 0.180611 16.1833 0.502102 16.5021C0.823593 16.8209 1.25963 17 1.71428 17H10.2857C10.7404 17 11.1764 16.8209 11.4979 16.5021C11.8194 16.1833 12 15.7509 12 15.3C12 14.8491 11.8194 14.4167 11.4979 14.0979C11.1764 13.7791 10.7404 13.6 10.2857 13.6ZM22.2857 6.8H1.71428C1.25963 6.8 0.823593 6.97911 0.502102 7.29792C0.180611 7.61673 0 8.04913 0 8.5C0 8.95087 0.180611 9.38327 0.502102 9.70208C0.823593 10.0209 1.25963 10.2 1.71428 10.2H22.2857C22.7404 10.2 23.1764 10.0209 23.4979 9.70208C23.8194 9.38327 24 8.95087 24 8.5C24 8.04913 23.8194 7.61673 23.4979 7.29792C23.1764 6.97911 22.7404 6.8 22.2857 6.8Z" fill="#585858"/>
</svg>
