<svg width="15" height="20" viewBox="0 0 15 20" fill="none" xmlns="http://www.w3.org/2000/svg">
<path d="M6.42773 0.00131641C6.59488 0.00126068 6.75677 0.0598393 6.88518 0.166851C7.01359 0.273862 7.1004 0.422527 7.13049 0.586954L7.14192 0.715508V5.00066C7.14209 5.82387 6.85783 6.62186 6.33724 7.25958C5.81666 7.89729 5.09173 8.33556 4.28515 8.5002V19.2845C4.28548 19.463 4.21898 19.6351 4.09874 19.767C3.9785 19.8989 3.81323 19.981 3.63549 19.9971C3.45775 20.0132 3.28041 19.9622 3.1384 19.8541C2.99639 19.746 2.89999 19.5887 2.8682 19.413L2.85677 19.2845V8.5002C2.09139 8.34366 1.39842 7.94055 0.884003 7.35261C0.369583 6.76466 0.0620732 6.0243 0.00857157 5.24491L1.21154e-06 5.00066V0.715508C-0.000327336 0.537037 0.0661768 0.364911 0.186417 0.233024C0.306658 0.101138 0.47192 0.0190485 0.649661 0.0029228C0.827402 -0.0132029 1.00474 0.0378032 1.14675 0.145897C1.28877 0.253991 1.38516 0.411338 1.41696 0.586954L1.42838 0.715508V5.00066C1.42815 5.44392 1.56541 5.87635 1.82123 6.23834C2.07705 6.60033 2.43885 6.87407 2.85677 7.02182V0.715508C2.85644 0.537037 2.92294 0.364911 3.04318 0.233024C3.16343 0.101138 3.32869 0.0190485 3.50643 0.0029228C3.68417 -0.0132029 3.86151 0.0378032 4.00352 0.145897C4.14553 0.253991 4.24193 0.411338 4.27373 0.586954L4.28515 0.715508V7.02039C5.05362 6.749 5.62069 6.05195 5.70354 5.21349L5.71354 5.00066V0.715508C5.71354 0.526093 5.78878 0.344435 5.92272 0.210498C6.05665 0.0765615 6.23831 0.00131641 6.42773 0.00131641ZM13.5696 0.00131641C13.7368 0.00126068 13.8987 0.0598393 14.0271 0.166851C14.1555 0.273862 14.2423 0.422527 14.2724 0.586954L14.2838 0.715508V19.2845C14.2842 19.463 14.2177 19.6351 14.0974 19.767C13.9772 19.8989 13.8119 19.981 13.6342 19.9971C13.4564 20.0132 13.2791 19.9622 13.1371 19.8541C12.9951 19.746 12.8987 19.5887 12.8669 19.413L12.8555 19.2845V11.4284H10.7129C10.5457 11.4284 10.3838 11.3699 10.2554 11.2628C10.127 11.1558 10.0402 11.0072 10.0101 10.8427L9.99869 10.7142V3.57228C9.99869 2.6252 10.3749 1.71691 11.0446 1.04723C11.7143 0.377541 12.6226 0.00131641 13.5696 0.00131641ZM12.8555 10V1.55111C12.087 1.82251 11.5199 2.51956 11.4371 3.35945L11.4271 3.57228V10H12.8555V1.55111V10Z" fill="#585858"/>
</svg>






