<svg width="32" height="33" viewBox="0 0 32 33" fill="none" xmlns="http://www.w3.org/2000/svg">
<path d="M8.79528 32.0001C6.00787 31.2415 5.03543 28.8204 4.89764 27.7047V20.4528V16.8826H27.1614V20.0623V20.4528V23.1304V27.7047C26.9252 30.7394 24.2283 31.8328 22.9094 32.0001H8.79528Z" fill="#FECD55"/>
<path d="M4.89764 20.4528V16.8826H27.1614V20.0623V20.4528M4.89764 20.4528V27.7047C5.03543 28.8204 6.00787 31.2415 8.79528 32.0001H22.9094C24.2283 31.8328 26.9252 30.7394 27.1614 27.7047V23.1304V20.4528M4.89764 20.4528H1M27.1614 20.4528H31" stroke="#FECD55" stroke-width="2" stroke-linecap="round"/>
<path d="M9.67639 31C7.04721 30.2478 6.12997 27.8473 6 26.7412C6.89125 27.2205 8.96339 28.135 10.122 27.958C11.5703 27.7367 13.5756 28.2898 19.8143 24.6394C24.8053 21.719 26.6844 21.8002 27 22.2058V26.7412C26.7772 29.75 24.2334 30.8341 22.9894 31H9.67639Z" fill="white" stroke="#FECD55" stroke-width="2" stroke-linecap="round"/>
<path d="M8.3939 11.4737C9.20155 10.8582 10.2353 9.19358 7.90932 7.45941C5.5833 5.72525 6.94014 4.27475 7.90932 3.76628M14.8874 11.4737C16.115 10.7511 17.7949 8.69581 14.6935 6.25513C11.5922 3.81445 13.5305 2.40143 14.8874 2M21.7379 11.4737C22.4452 10.8547 23.3505 9.18062 21.3136 7.4366C19.2766 5.69258 20.4648 4.23385 21.3136 3.72249" stroke="#FECD55" stroke-width="3" stroke-linecap="round"/>
</svg>

