<svg width="28" height="35" viewBox="0 0 28 35" fill="none" xmlns="http://www.w3.org/2000/svg">
<path d="M3.03939 30H25C25 26.6204 23.0494 20.1257 15.5529 19.1295C14.9162 19.0449 14.2395 19 13.5206 19C12.8016 19 12.129 19.0449 11.5 19.1295C4.09383 20.1257 2.73271 26.6204 3.03939 30Z" fill="#4CAF50" stroke="#4CAF50" stroke-width="2" stroke-linecap="round"/>
<path d="M14.1769 18.5C13.458 18.5 12.7853 18.5449 12.1563 18.6295C11.8367 17.4197 11.7933 15 14.1769 15C16.5604 15 16.5249 17.4197 16.2092 18.6295C15.5725 18.5449 14.8958 18.5 14.1769 18.5Z" stroke="#4CAF50" stroke-width="2" stroke-linecap="round"/>
<circle cx="15.5" cy="22.5" r="0.5" fill="white"/>
<path d="M17 23C18.3333 23.6667 20.5 25.2 20.5 26" stroke="white" stroke-linecap="round"/>
<rect x="1" y="30" width="26" height="4" rx="2" stroke="#4CAF50" stroke-width="2" stroke-linejoin="round"/>
<path d="M6.3939 11.4737C7.20155 10.8582 8.23533 9.19358 5.90932 7.45941C3.5833 5.72525 4.94014 4.27475 5.90932 3.76628M12.8874 11.4737C14.115 10.7511 15.7949 8.69581 12.6935 6.25513C9.59219 3.81445 11.5305 2.40143 12.8874 2M19.7379 11.4737C20.4452 10.8547 21.3505 9.18062 19.3136 7.4366C17.2766 5.69258 18.4648 4.23385 19.3136 3.72249" stroke="#4CAF50" stroke-width="3" stroke-linecap="round"/>
</svg>
