<svg width="38" height="38" viewBox="0 0 38 38" fill="none" xmlns="http://www.w3.org/2000/svg">
<g filter="url(#filter0_d)">
<circle cx="19" cy="19" r="15" fill="white"/>
</g>
<g clip-path="url(#clip0)">
<path d="M19 21.25C20.2426 21.25 21.25 20.2426 21.25 19C21.25 17.7574 20.2426 16.75 19 16.75C17.7574 16.75 16.75 17.7574 16.75 19C16.75 20.2426 17.7574 21.25 19 21.25Z" stroke="#FF0036" stroke-width="2" stroke-linecap="round" stroke-linejoin="round"/>
<path d="M24.55 21.25C24.4502 21.4762 24.4204 21.7271 24.4645 21.9704C24.5086 22.2137 24.6246 22.4382 24.7975 22.615L24.8425 22.66C24.982 22.7993 25.0926 22.9647 25.1681 23.1468C25.2436 23.3289 25.2824 23.5241 25.2824 23.7213C25.2824 23.9184 25.2436 24.1136 25.1681 24.2957C25.0926 24.4778 24.982 24.6432 24.8425 24.7825C24.7032 24.922 24.5378 25.0326 24.3557 25.1081C24.1736 25.1836 23.9784 25.2224 23.7812 25.2224C23.5841 25.2224 23.3889 25.1836 23.2068 25.1081C23.0247 25.0326 22.8593 24.922 22.72 24.7825L22.675 24.7375C22.4982 24.5646 22.2737 24.4486 22.0304 24.4045C21.7871 24.3604 21.5362 24.3902 21.31 24.49C21.0882 24.5851 20.899 24.7429 20.7657 24.9442C20.6325 25.1454 20.561 25.3812 20.56 25.6225V25.75C20.56 26.1478 20.402 26.5294 20.1207 26.8107C19.8394 27.092 19.4578 27.25 19.06 27.25C18.6622 27.25 18.2806 27.092 17.9993 26.8107C17.718 26.5294 17.56 26.1478 17.56 25.75V25.6825C17.5542 25.4343 17.4738 25.1935 17.3294 24.9915C17.1849 24.7896 16.9831 24.6357 16.75 24.55C16.5238 24.4502 16.2729 24.4204 16.0296 24.4645C15.7863 24.5086 15.5618 24.6246 15.385 24.7975L15.34 24.8425C15.2007 24.982 15.0353 25.0926 14.8532 25.1681C14.6711 25.2436 14.4759 25.2824 14.2787 25.2824C14.0816 25.2824 13.8864 25.2436 13.7043 25.1681C13.5222 25.0926 13.3568 24.982 13.2175 24.8425C13.078 24.7032 12.9674 24.5378 12.8919 24.3557C12.8164 24.1736 12.7776 23.9784 12.7776 23.7812C12.7776 23.5841 12.8164 23.3889 12.8919 23.2068C12.9674 23.0247 13.078 22.8593 13.2175 22.72L13.2625 22.675C13.4354 22.4982 13.5514 22.2737 13.5955 22.0304C13.6396 21.7871 13.6098 21.5362 13.51 21.31C13.4149 21.0882 13.2571 20.899 13.0558 20.7657C12.8546 20.6325 12.6188 20.561 12.3775 20.56H12.25C11.8522 20.56 11.4706 20.402 11.1893 20.1207C10.908 19.8394 10.75 19.4578 10.75 19.06C10.75 18.6622 10.908 18.2806 11.1893 17.9993C11.4706 17.718 11.8522 17.56 12.25 17.56H12.3175C12.5657 17.5542 12.8065 17.4738 13.0085 17.3294C13.2104 17.1849 13.3643 16.9831 13.45 16.75C13.5498 16.5238 13.5796 16.2729 13.5355 16.0296C13.4914 15.7863 13.3754 15.5618 13.2025 15.385L13.1575 15.34C13.018 15.2007 12.9074 15.0353 12.8319 14.8532C12.7564 14.6711 12.7176 14.4759 12.7176 14.2787C12.7176 14.0816 12.7564 13.8864 12.8319 13.7043C12.9074 13.5222 13.018 13.3568 13.1575 13.2175C13.2968 13.078 13.4622 12.9674 13.6443 12.8919C13.8264 12.8164 14.0216 12.7776 14.2188 12.7776C14.4159 12.7776 14.6111 12.8164 14.7932 12.8919C14.9753 12.9674 15.1407 13.078 15.28 13.2175L15.325 13.2625C15.5018 13.4354 15.7263 13.5514 15.9696 13.5955C16.2129 13.6396 16.4638 13.6098 16.69 13.51H16.75C16.9718 13.4149 17.161 13.2571 17.2943 13.0558C17.4275 12.8546 17.499 12.6188 17.5 12.3775V12.25C17.5 11.8522 17.658 11.4706 17.9393 11.1893C18.2206 10.908 18.6022 10.75 19 10.75C19.3978 10.75 19.7794 10.908 20.0607 11.1893C20.342 11.4706 20.5 11.8522 20.5 12.25V12.3175C20.501 12.5588 20.5725 12.7946 20.7057 12.9958C20.839 13.1971 21.0282 13.3549 21.25 13.45C21.4762 13.5498 21.7271 13.5796 21.9704 13.5355C22.2137 13.4914 22.4382 13.3754 22.615 13.2025L22.66 13.1575C22.7993 13.018 22.9647 12.9074 23.1468 12.8319C23.3289 12.7564 23.5241 12.7176 23.7213 12.7176C23.9184 12.7176 24.1136 12.7564 24.2957 12.8319C24.4778 12.9074 24.6432 13.018 24.7825 13.1575C24.922 13.2968 25.0326 13.4622 25.1081 13.6443C25.1836 13.8264 25.2224 14.0216 25.2224 14.2188C25.2224 14.4159 25.1836 14.6111 25.1081 14.7932C25.0326 14.9753 24.922 15.1407 24.7825 15.28L24.7375 15.325C24.5646 15.5018 24.4486 15.7263 24.4045 15.9696C24.3604 16.2129 24.3902 16.4638 24.49 16.69V16.75C24.5851 16.9718 24.7429 17.161 24.9442 17.2943C25.1454 17.4275 25.3812 17.499 25.6225 17.5H25.75C26.1478 17.5 26.5294 17.658 26.8107 17.9393C27.092 18.2206 27.25 18.6022 27.25 19C27.25 19.3978 27.092 19.7794 26.8107 20.0607C26.5294 20.342 26.1478 20.5 25.75 20.5H25.6825C25.4412 20.501 25.2054 20.5725 25.0042 20.7057C24.8029 20.839 24.6451 21.0282 24.55 21.25V21.25Z" stroke="#FF0036" stroke-width="2" stroke-linecap="round" stroke-linejoin="round"/>
</g>
<defs>
<filter id="filter0_d" x="0" y="0" width="38" height="38" filterUnits="userSpaceOnUse" color-interpolation-filters="sRGB">
<feFlood flood-opacity="0" result="BackgroundImageFix"/>
<feColorMatrix in="SourceAlpha" type="matrix" values="0 0 0 0 0 0 0 0 0 0 0 0 0 0 0 0 0 0 127 0" result="hardAlpha"/>
<feOffset/>
<feGaussianBlur stdDeviation="2"/>
<feComposite in2="hardAlpha" operator="out"/>
<feColorMatrix type="matrix" values="0 0 0 0 1 0 0 0 0 0 0 0 0 0 0.211765 0 0 0 0.5 0"/>
<feBlend mode="normal" in2="BackgroundImageFix" result="effect1_dropShadow"/>
<feBlend mode="normal" in="SourceGraphic" in2="effect1_dropShadow" result="shape"/>
</filter>
<clipPath id="clip0">
<rect width="18" height="18" fill="white" transform="translate(10 10)"/>
</clipPath>
</defs>
</svg>
