<svg width="505" height="502" viewBox="0 0 505 502" fill="none" xmlns="http://www.w3.org/2000/svg">

<defs>
<linearGradient id="paint0_linear" x1="27.9999" y1="453.22" x2="136.971" y2="502.511" gradientUnits="userSpaceOnUse">
<stop stop-color="#FF6787"/>
<stop offset="1" stop-color="#FF0036"/>
</linearGradient>
<linearGradient id="paint1_linear" x1="27.9999" y1="453.22" x2="136.971" y2="502.511" gradientUnits="userSpaceOnUse">
<stop stop-color="#FF6787"/>
<stop offset="1" stop-color="#FF0036"/>
</linearGradient>
<linearGradient id="paint2_linear" x1="27.9999" y1="453.22" x2="136.971" y2="502.511" gradientUnits="userSpaceOnUse">
<stop stop-color="#FF6787"/>
<stop offset="1" stop-color="#FF0036"/>
</linearGradient>
<linearGradient id="paint3_linear" x1="79.2081" y1="470.676" x2="178.284" y2="522.391" gradientUnits="userSpaceOnUse">
<stop stop-color="#FF6787"/>
<stop offset="1" stop-color="#FF0036"/>
</linearGradient>
<linearGradient id="paint4_linear" x1="79.2081" y1="470.676" x2="178.284" y2="522.391" gradientUnits="userSpaceOnUse">
<stop stop-color="#FF6787"/>
<stop offset="1" stop-color="#FF0036"/>
</linearGradient>
<linearGradient id="paint5_linear" x1="79.2081" y1="470.676" x2="178.284" y2="522.391" gradientUnits="userSpaceOnUse">
<stop stop-color="#FF6787"/>
<stop offset="1" stop-color="#FF0036"/>
</linearGradient>
</defs>
<path d="M337.878 33.1368C340.128 31.1254 342.722 30.1787 344.634 31.3223C346.874 32.6619 347.431 36.4176 345.571 39.5271L269.376 166.92L269.092 166.751C268.456 167.823 268.663 167.501 268.506 167.762C259.679 182.521 245.461 191.557 232.994 191.454C229.849 196.648 226.419 202.476 222.654 208.777L195.422 208.777C197.962 204.616 200.406 200.607 202.709 196.773C206.48 190.476 210.026 184.64 213.114 179.413C207.126 168.477 208.294 151.789 217.122 137.03C217.278 136.769 217.092 137.103 217.736 136.035L217.718 136.025L293.914 8.63015C294.356 7.89085 294.898 7.22144 295.51 6.66017C296.122 6.0989 296.792 5.65675 297.481 5.359C298.17 5.06125 298.865 4.91371 299.526 4.92483C300.187 4.93595 300.801 5.1055 301.334 5.42379C302.977 6.40696 304.177 8.97299 303.009 10.9253L251.886 96.4008C250.425 98.8424 250.856 101.787 252.615 102.839C254.287 103.839 256.905 102.966 258.396 100.77L258.615 100.901L308.563 17.392C310.423 14.2825 313.546 12.7279 315.785 14.0675C318.025 15.4072 318.133 18.894 316.273 22.0034L266.326 105.512L266.503 105.617C265.273 107.971 265.379 110.472 267.051 111.472C268.81 112.524 271.243 111.292 272.703 108.851L323.75 23.5048C325.731 21.9429 328.229 21.51 329.91 22.5153C331.904 23.7083 332.323 26.6734 331.519 29.7677L281.184 113.923C279.724 116.365 279.866 119.137 281.624 120.189C283.383 121.24 285.892 120.054 287.353 117.613L337.878 33.1368Z" fill="url(#paint0_linear)"/>
<path d="M65.7353 410.166C69.0904 404.691 72.9651 398.566 77.2573 391.926C78.9211 389.366 80.6324 386.719 82.3949 384C88.7429 392.5 102.845 410.5 108.469 414.5C105.26 420.28 102.247 425.593 99.4739 430.345C96.2529 435.9 93.3666 440.696 90.9542 444.625C88.5463 448.556 86.5978 451.611 85.2577 453.687L83.1737 456.852C75.042 469.207 61.4121 474.178 52.7304 467.955C44.6845 462.188 43.7174 448.827 50.0921 437.066L51.8954 433.732C53.0905 431.57 54.861 428.408 57.1848 424.427C59.5047 420.443 62.364 415.631 65.7353 410.166Z" fill="url(#paint1_linear)"/>
<path d="M123.976 321.454C126.475 317.699 128.987 313.916 131.5 310.113L164.649 310.113C159.706 319.109 154.848 328.153 150.082 337.068L136.047 363.5C128.084 355.9 119.529 340 116.247 333L123.976 321.454Z" fill="url(#paint2_linear)"/>
<path d="M382.556 107.075L427.752 38.1682C429.528 35.4218 430.189 31.9542 429.177 29.0064C428.796 27.8961 428.2 26.9144 427.423 26.1173C426.646 25.3203 425.703 24.7234 424.648 24.361C423.593 23.9985 422.446 23.8774 421.274 24.0047C420.101 24.132 418.926 24.5052 417.815 25.1029L412.325 28.0546L410.81 28.8695C409.827 29.418 408.414 30.2624 406.547 31.3474C402.85 33.5425 397.627 36.8923 391.305 41.3691C384.971 45.8379 377.616 51.4844 369.601 58.2391C361.601 65.0035 352.876 72.8321 343.968 81.7719C341.702 83.9813 339.527 86.3269 337.234 88.668C336.101 89.8481 334.935 91.0241 333.801 92.2375L330.413 95.9405C325.827 100.903 321.194 106.102 316.654 111.593C312.122 117.089 307.657 122.861 303.42 128.974C299.176 135.084 295.175 141.544 291.394 148.304C287.597 155.052 284.043 162.115 280.488 169.292C278.683 172.864 276.961 176.516 275.178 180.154C273.414 183.805 271.606 187.449 269.963 191.223C268.314 194.991 266.714 198.812 265.286 202.759C264.549 204.717 263.803 206.674 263.145 208.691L315.857 209L336.303 177.754L382.556 107.075Z" fill="url(#paint3_linear)"/>
<path d="M205.407 376.776L229.919 339.573L249.4 310L222.181 310C221.696 310.732 221.204 311.458 220.714 312.183L220.561 312.408L217.255 317.301C214.951 320.48 212.766 323.705 210.396 326.771C205.8 332.996 200.954 338.902 196.173 344.659C191.365 350.397 186.487 355.899 181.808 361.299C177.126 366.698 172.519 371.915 168.156 377.021L167.675 377.585C165.662 379.946 163.681 382.27 161.779 384.585C161.197 385.283 160.619 385.977 160.045 386.669C165.568 391.018 178.903 400.444 188.057 403.358L194.096 394.034L205.407 376.776Z" fill="url(#paint4_linear)"/>
<path d="M143.058 475.088C145.056 471.778 147.886 466.859 151.691 460.731C153.466 457.84 155.412 454.651 157.538 451.204L158.5 449.754C155.868 449.754 136.12 436.794 126.574 430.314L126.019 431.102L125.537 431.787C123.448 434.657 121.52 437.33 119.743 439.778C115.469 445.598 112.289 450.288 110.044 453.435C108.924 455.01 108.105 456.244 107.537 457.065L106.684 458.315L106.12 459.139C105.748 459.686 105.395 460.246 105.062 460.817C98.4076 472.217 100.85 485.799 110.517 491.155C120.183 496.511 133.413 491.61 140.067 480.21L143.058 475.088Z" fill="url(#paint5_linear)"/>
<mask id="path-3-outside-1" maskUnits="userSpaceOnUse" x="0" y="144" width="505" height="166" fill="black">
<rect fill="white" y="144" width="505" height="166"/>
<path d="M3 307.4C3.93333 304.6 7.06667 297.4 12.4 285.8C17.8667 274.067 25.2 258.267 34.4 238.4C43.7333 218.4 54.6667 194.667 67.2 167.2C67.7333 166.133 68.1333 165 68.4 163.8C68.8 162.6 69 161.533 69 160.6C69 159.267 68.6 158.2 67.8 157.4C67 156.6 65.4667 156.2 63.2 156.2C57.6 156.2 53 157.933 49.4 161.4C45.9333 164.733 43.3333 168.867 41.6 173.8C40 178.733 39.2 183.6 39.2 188.4C39.2 189.6 39.2667 191 39.4 192.6C39.5333 194.2 39.7333 196 40 198C36.8 198 34.1333 197.067 32 195.2C30 193.2 28.4667 190.8 27.4 188C26.3333 185.067 25.8 182.333 25.8 179.8C25.8 175.533 27 171.4 29.4 167.4C31.9333 163.4 35.2 159.8 39.2 156.6C43.2 153.267 47.6 150.667 52.4 148.8C57.3333 146.933 62.2 146 67 146C71.9333 146 76.1333 147.4 79.6 150.2C83.0667 152.867 85.7333 157.8 87.6 165C89.4667 172.067 90.4 182.267 90.4 195.6C90.4 204.267 90.0667 213.067 89.4 222C88.8667 230.8 88.2667 239.067 87.6 246.8C86.9333 254.533 86.6 261.133 86.6 266.6C89.2667 258.733 92.5333 250.4 96.4 241.6C100.4 232.667 104.667 223.867 109.2 215.2C113.733 206.4 118.2 198.133 122.6 190.4C127 182.667 130.933 175.933 134.4 170.2C138 164.333 140.733 160 142.6 157.2C144.467 154.267 146.133 152.067 147.6 150.6C149.067 149.133 151.067 148.4 153.6 148.4C155.467 148.4 158.4 149.133 162.4 150.6C161.2 153.133 159.8 157.2 158.2 162.8C156.6 168.267 154.867 174.667 153 182C151 190 149 198.8 147 208.4C145 217.867 143.2 227.467 141.6 237.2C140 246.933 138.667 256.2 137.6 265C136.667 273.667 136.2 281.333 136.2 288C136.2 291.467 136.333 294.2 136.6 296.2C137 298.2 137.467 299.933 138 301.4C138.667 303 139.4 305 140.2 307.4C134.467 307.4 130.067 306.533 127 304.8C124.067 303.067 122.067 300.267 121 296.4C120.067 292.667 119.6 287.667 119.6 281.4C119.6 266.6 121.267 251.067 124.6 234.8C128.067 218.4 132.067 201.533 136.6 184.2C132.867 189.533 129 195.867 125 203.2C121 210.533 117.067 218.267 113.2 226.4C109.333 234.533 105.667 242.6 102.2 250.6C98.7333 258.467 95.6667 265.8 93 272.6C90.3333 279.267 88.2667 284.867 86.8 289.4C84.8 290.067 83.4 290.4 82.6 290.4C77.9333 290.4 74.9333 287.6 73.6 282C72.4 276.267 71.8 268.467 71.8 258.6C71.8 251.533 71.9333 244 72.2 236C72.4667 227.867 72.7333 219.667 73 211.4C73.2667 203 73.4 195.067 73.4 187.6C73.4 185.6 73.3333 183.6 73.2 181.6C73.2 179.6 73.2 177.667 73.2 175.8C63.0667 199.4 54.4667 219.6 47.4 236.4C40.4667 253.067 34.5333 266.667 29.6 277.2C24.6667 287.6 20.1333 295.2 16 300C11.8667 304.933 7.53333 307.4 3 307.4Z"/>
<path d="M183.645 298.8C175.112 298.8 168.512 296.467 163.845 291.8C159.312 287.267 157.045 281.533 157.045 274.6C157.045 268.733 158.512 262.533 161.445 256C164.512 249.333 168.579 243.133 173.645 237.4C178.712 231.533 184.312 226.8 190.445 223.2C196.579 219.6 202.712 217.8 208.845 217.8C212.312 217.8 215.579 218.733 218.645 220.6C221.845 222.333 223.445 225.867 223.445 231.2C223.445 236.267 221.979 241 219.045 245.4C216.112 249.8 212.179 253.733 207.245 257.2C202.312 260.667 196.845 263.533 190.845 265.8C184.979 267.933 179.045 269.333 173.045 270C172.912 270.533 172.779 271.133 172.645 271.8C172.645 272.333 172.645 273.267 172.645 274.6C172.645 275.267 172.712 276.467 172.845 278.2C173.112 279.8 173.712 281.533 174.645 283.4C175.579 285.267 177.112 286.867 179.245 288.2C181.379 289.533 184.312 290.2 188.045 290.2C193.645 290.2 199.245 288.667 204.845 285.6C210.579 282.4 215.912 278.2 220.845 273C225.912 267.8 230.112 262 233.445 255.6L237.445 258.8C233.845 266.8 229.179 273.8 223.445 279.8C217.845 285.8 211.579 290.467 204.645 293.8C197.845 297.133 190.845 298.8 183.645 298.8ZM175.245 262.6C178.712 262.2 182.579 261 186.845 259C191.112 257 195.179 254.467 199.045 251.4C203.045 248.333 206.312 245 208.845 241.4C211.379 237.667 212.645 233.933 212.645 230.2C212.645 228.733 212.379 227.733 211.845 227.2C211.312 226.667 210.445 226.4 209.245 226.4C206.179 226.4 202.979 227.533 199.645 229.8C196.312 231.933 193.045 234.8 189.845 238.4C186.645 241.867 183.779 245.733 181.245 250C178.712 254.267 176.712 258.467 175.245 262.6Z"/>
<path d="M252.009 300.2C245.343 300.2 239.943 298.8 235.809 296C231.809 293.333 228.943 289.933 227.209 285.8C225.476 281.533 224.609 277.2 224.609 272.8C224.609 268.933 225.143 265.933 226.209 263.8C227.276 261.667 228.609 260.133 230.209 259.2C231.809 258.133 233.276 257.333 234.609 256.8C236.076 256.267 237.143 255.667 237.809 255C241.143 251.533 244.543 247.533 248.009 243C251.609 238.333 254.676 233.2 257.209 227.6V225.6C257.209 220.267 258.076 216.533 259.809 214.4C261.676 212.133 263.809 211 266.209 211C267.809 211 268.943 211.4 269.609 212.2C270.409 213 270.876 213.933 271.009 215C271.009 215.8 270.809 216.733 270.409 217.8C270.143 218.867 270.009 220.333 270.009 222.2C270.009 226.2 270.943 230.8 272.809 236C274.809 241.067 276.743 246.467 278.609 252.2C280.609 257.933 281.609 263.8 281.609 269.8C281.609 271.4 281.543 272.867 281.409 274.2C281.276 275.533 281.076 276.8 280.809 278C284.943 276.933 289.009 274.667 293.009 271.2C297.009 267.6 300.809 262.333 304.409 255.4L306.809 257.2C304.276 264.8 300.609 270.933 295.809 275.6C291.009 280.133 285.409 282.933 279.009 284C276.876 289.467 273.343 293.533 268.409 296.2C263.609 298.867 258.143 300.2 252.009 300.2ZM265.009 277.6C265.276 276.667 265.409 275.6 265.409 274.4C265.543 273.067 265.609 272.067 265.609 271.4C265.476 265.4 264.676 259.467 263.209 253.6C261.743 247.733 260.276 241.733 258.809 235.6C256.409 239.733 253.609 244.2 250.409 249C247.209 253.8 244.209 257.667 241.409 260.6C243.543 264.2 246.676 267.6 250.809 270.8C254.943 274 259.676 276.267 265.009 277.6ZM250.609 291.4C253.276 291.4 255.743 290.733 258.009 289.4C260.276 288.067 262.076 286.133 263.409 283.6C257.943 282.4 253.009 280.267 248.609 277.2C244.209 274.133 240.809 271 238.409 267.8C236.543 268.2 235.609 270 235.609 273.2C235.609 277.6 236.876 281.733 239.409 285.6C241.943 289.467 245.676 291.4 250.609 291.4Z"/>
<path d="M338.327 205.8C335.793 205.8 333.46 205.2 331.327 204C329.327 202.667 328.327 200.667 328.327 198C328.327 194.8 330.06 192.067 333.527 189.8C336.993 187.533 340.593 186.4 344.327 186.4C346.727 186.4 348.727 186.933 350.327 188C352.06 189.067 352.927 191 352.927 193.8C352.927 196.6 351.393 199.333 348.327 202C345.26 204.533 341.927 205.8 338.327 205.8ZM314.727 296C308.86 296 304.46 294.267 301.527 290.8C298.593 287.333 297.127 283.133 297.127 278.2C297.127 275.133 297.66 271.267 298.727 266.6C299.793 261.933 301.26 257.067 303.127 252C305.127 246.8 307.393 241.933 309.927 237.4C312.46 232.867 315.193 229.2 318.127 226.4C321.06 223.467 323.993 222 326.927 222C328.527 222 329.927 222.533 331.127 223.6C332.327 224.533 332.927 225.933 332.927 227.8C332.927 229.533 331.86 232.133 329.727 235.6C327.727 239.067 325.327 243.067 322.527 247.6C319.86 252.133 317.46 256.867 315.327 261.8C313.327 266.6 312.327 271.2 312.327 275.6C312.327 279.867 313.06 282.733 314.527 284.2C316.127 285.533 318.393 286.2 321.327 286.2C325.86 286.2 330.793 283.933 336.127 279.4C341.46 274.867 346.993 266.933 352.727 255.6L355.727 258.8C351.06 270.533 345.127 279.667 337.927 286.2C330.727 292.733 322.993 296 314.727 296Z"/>
<path d="M365.755 299.2C359.888 299.2 355.155 297.467 351.555 294C347.955 290.533 346.155 285.267 346.155 278.2C346.155 272.733 347.155 265.933 349.155 257.8C351.288 249.667 353.955 241.267 357.155 232.6C356.221 232.333 355.088 232.133 353.755 232C352.555 231.733 351.355 231.333 350.155 230.8V224.6C352.288 224.867 354.021 225.067 355.355 225.2C356.821 225.333 358.288 225.467 359.755 225.6C362.555 218.533 365.555 211.733 368.755 205.2C372.088 198.533 375.355 192.6 378.555 187.4C381.888 182.2 385.021 178.133 387.955 175.2C390.888 172.133 393.488 170.6 395.755 170.6C397.088 170.6 398.355 171.133 399.555 172.2C400.755 173.133 401.355 174.533 401.355 176.4C401.355 179.067 399.955 182.867 397.155 187.8C394.488 192.733 391.155 198.533 387.155 205.2C383.155 211.733 379.288 218.733 375.555 226.2H381.755C387.621 226.2 392.888 226.133 397.555 226C402.355 225.733 407.221 225.333 412.155 224.8V231.4C404.821 232.067 398.088 232.6 391.955 233C385.821 233.4 379.955 233.667 374.355 233.8H371.955C369.155 240.333 366.688 247.067 364.555 254C362.555 260.8 361.555 267.467 361.555 274C361.555 279.467 362.421 283.333 364.155 285.6C365.888 287.867 368.621 289 372.355 289C379.021 289 385.821 286 392.755 280C399.821 273.867 405.955 265.6 411.155 255.2L413.955 257.2C410.488 265.067 406.155 272.2 400.955 278.6C395.888 285 390.355 290 384.355 293.6C378.355 297.333 372.155 299.2 365.755 299.2Z"/>
<path d="M416.372 299.4C411.972 299.4 408.172 297.933 404.972 295C401.639 292.067 399.972 287.667 399.972 281.8C399.972 277.133 401.039 272.067 403.172 266.6C405.305 261.133 408.239 255.733 411.972 250.4C415.705 245.067 419.972 240.267 424.772 236C429.572 231.6 434.705 228.067 440.172 225.4C445.639 222.733 451.105 221.4 456.572 221.4C462.305 221.4 467.172 222.867 471.172 225.8C475.172 228.733 477.172 232.6 477.172 237.4C477.172 241 475.905 243.6 473.372 245.2C470.839 246.8 467.839 247.267 464.372 246.6C464.639 245.4 464.839 244.2 464.972 243C465.239 241.8 465.372 240.533 465.372 239.2C465.372 236.533 464.839 234.133 463.772 232C462.705 229.867 460.439 228.8 456.972 228.8C453.239 228.8 449.439 230.067 445.572 232.6C441.705 235.133 437.972 238.467 434.372 242.6C430.905 246.6 427.772 251.067 424.972 256C422.172 260.8 419.972 265.533 418.372 270.2C416.772 274.867 415.972 279.067 415.972 282.8C415.972 287.067 417.505 289.2 420.572 289.2C423.639 289.2 427.039 287.733 430.772 284.8C434.505 281.733 438.239 277.933 441.972 273.4C445.839 268.867 449.505 264.267 452.972 259.6C456.439 254.8 459.439 250.733 461.972 247.4C462.372 246.733 462.905 246.4 463.572 246.4C464.105 246.533 465.105 246.867 466.572 247.4C468.172 247.8 469.639 248.467 470.972 249.4C472.305 250.333 472.972 251.533 472.972 253C472.972 254.733 472.039 257.133 470.172 260.2C468.305 263.133 466.372 266.333 464.372 269.8C462.505 273.267 461.572 276.467 461.572 279.4C461.572 281.133 462.039 282.8 462.972 284.4C463.905 285.867 465.439 286.6 467.572 286.6C470.772 286.6 475.239 284.267 480.972 279.6C486.839 274.8 492.772 266.733 498.772 255.4L502.572 259.2C497.639 270.133 491.505 279 484.172 285.8C476.839 292.6 469.439 296 461.972 296C456.505 296 452.439 294.267 449.772 290.8C447.105 287.333 445.639 283.6 445.372 279.6V278.6C440.039 285 435.105 290.067 430.572 293.8C426.172 297.533 421.439 299.4 416.372 299.4Z"/>
</mask>
<path d="M3 307.4C3.93333 304.6 7.06667 297.4 12.4 285.8C17.8667 274.067 25.2 258.267 34.4 238.4C43.7333 218.4 54.6667 194.667 67.2 167.2C67.7333 166.133 68.1333 165 68.4 163.8C68.8 162.6 69 161.533 69 160.6C69 159.267 68.6 158.2 67.8 157.4C67 156.6 65.4667 156.2 63.2 156.2C57.6 156.2 53 157.933 49.4 161.4C45.9333 164.733 43.3333 168.867 41.6 173.8C40 178.733 39.2 183.6 39.2 188.4C39.2 189.6 39.2667 191 39.4 192.6C39.5333 194.2 39.7333 196 40 198C36.8 198 34.1333 197.067 32 195.2C30 193.2 28.4667 190.8 27.4 188C26.3333 185.067 25.8 182.333 25.8 179.8C25.8 175.533 27 171.4 29.4 167.4C31.9333 163.4 35.2 159.8 39.2 156.6C43.2 153.267 47.6 150.667 52.4 148.8C57.3333 146.933 62.2 146 67 146C71.9333 146 76.1333 147.4 79.6 150.2C83.0667 152.867 85.7333 157.8 87.6 165C89.4667 172.067 90.4 182.267 90.4 195.6C90.4 204.267 90.0667 213.067 89.4 222C88.8667 230.8 88.2667 239.067 87.6 246.8C86.9333 254.533 86.6 261.133 86.6 266.6C89.2667 258.733 92.5333 250.4 96.4 241.6C100.4 232.667 104.667 223.867 109.2 215.2C113.733 206.4 118.2 198.133 122.6 190.4C127 182.667 130.933 175.933 134.4 170.2C138 164.333 140.733 160 142.6 157.2C144.467 154.267 146.133 152.067 147.6 150.6C149.067 149.133 151.067 148.4 153.6 148.4C155.467 148.4 158.4 149.133 162.4 150.6C161.2 153.133 159.8 157.2 158.2 162.8C156.6 168.267 154.867 174.667 153 182C151 190 149 198.8 147 208.4C145 217.867 143.2 227.467 141.6 237.2C140 246.933 138.667 256.2 137.6 265C136.667 273.667 136.2 281.333 136.2 288C136.2 291.467 136.333 294.2 136.6 296.2C137 298.2 137.467 299.933 138 301.4C138.667 303 139.4 305 140.2 307.4C134.467 307.4 130.067 306.533 127 304.8C124.067 303.067 122.067 300.267 121 296.4C120.067 292.667 119.6 287.667 119.6 281.4C119.6 266.6 121.267 251.067 124.6 234.8C128.067 218.4 132.067 201.533 136.6 184.2C132.867 189.533 129 195.867 125 203.2C121 210.533 117.067 218.267 113.2 226.4C109.333 234.533 105.667 242.6 102.2 250.6C98.7333 258.467 95.6667 265.8 93 272.6C90.3333 279.267 88.2667 284.867 86.8 289.4C84.8 290.067 83.4 290.4 82.6 290.4C77.9333 290.4 74.9333 287.6 73.6 282C72.4 276.267 71.8 268.467 71.8 258.6C71.8 251.533 71.9333 244 72.2 236C72.4667 227.867 72.7333 219.667 73 211.4C73.2667 203 73.4 195.067 73.4 187.6C73.4 185.6 73.3333 183.6 73.2 181.6C73.2 179.6 73.2 177.667 73.2 175.8C63.0667 199.4 54.4667 219.6 47.4 236.4C40.4667 253.067 34.5333 266.667 29.6 277.2C24.6667 287.6 20.1333 295.2 16 300C11.8667 304.933 7.53333 307.4 3 307.4Z" fill="#FF6787" fill-opacity="0.6"/>
<path d="M183.645 298.8C175.112 298.8 168.512 296.467 163.845 291.8C159.312 287.267 157.045 281.533 157.045 274.6C157.045 268.733 158.512 262.533 161.445 256C164.512 249.333 168.579 243.133 173.645 237.4C178.712 231.533 184.312 226.8 190.445 223.2C196.579 219.6 202.712 217.8 208.845 217.8C212.312 217.8 215.579 218.733 218.645 220.6C221.845 222.333 223.445 225.867 223.445 231.2C223.445 236.267 221.979 241 219.045 245.4C216.112 249.8 212.179 253.733 207.245 257.2C202.312 260.667 196.845 263.533 190.845 265.8C184.979 267.933 179.045 269.333 173.045 270C172.912 270.533 172.779 271.133 172.645 271.8C172.645 272.333 172.645 273.267 172.645 274.6C172.645 275.267 172.712 276.467 172.845 278.2C173.112 279.8 173.712 281.533 174.645 283.4C175.579 285.267 177.112 286.867 179.245 288.2C181.379 289.533 184.312 290.2 188.045 290.2C193.645 290.2 199.245 288.667 204.845 285.6C210.579 282.4 215.912 278.2 220.845 273C225.912 267.8 230.112 262 233.445 255.6L237.445 258.8C233.845 266.8 229.179 273.8 223.445 279.8C217.845 285.8 211.579 290.467 204.645 293.8C197.845 297.133 190.845 298.8 183.645 298.8ZM175.245 262.6C178.712 262.2 182.579 261 186.845 259C191.112 257 195.179 254.467 199.045 251.4C203.045 248.333 206.312 245 208.845 241.4C211.379 237.667 212.645 233.933 212.645 230.2C212.645 228.733 212.379 227.733 211.845 227.2C211.312 226.667 210.445 226.4 209.245 226.4C206.179 226.4 202.979 227.533 199.645 229.8C196.312 231.933 193.045 234.8 189.845 238.4C186.645 241.867 183.779 245.733 181.245 250C178.712 254.267 176.712 258.467 175.245 262.6Z" fill="#FF6787" fill-opacity="0.6"/>
<path d="M252.009 300.2C245.343 300.2 239.943 298.8 235.809 296C231.809 293.333 228.943 289.933 227.209 285.8C225.476 281.533 224.609 277.2 224.609 272.8C224.609 268.933 225.143 265.933 226.209 263.8C227.276 261.667 228.609 260.133 230.209 259.2C231.809 258.133 233.276 257.333 234.609 256.8C236.076 256.267 237.143 255.667 237.809 255C241.143 251.533 244.543 247.533 248.009 243C251.609 238.333 254.676 233.2 257.209 227.6V225.6C257.209 220.267 258.076 216.533 259.809 214.4C261.676 212.133 263.809 211 266.209 211C267.809 211 268.943 211.4 269.609 212.2C270.409 213 270.876 213.933 271.009 215C271.009 215.8 270.809 216.733 270.409 217.8C270.143 218.867 270.009 220.333 270.009 222.2C270.009 226.2 270.943 230.8 272.809 236C274.809 241.067 276.743 246.467 278.609 252.2C280.609 257.933 281.609 263.8 281.609 269.8C281.609 271.4 281.543 272.867 281.409 274.2C281.276 275.533 281.076 276.8 280.809 278C284.943 276.933 289.009 274.667 293.009 271.2C297.009 267.6 300.809 262.333 304.409 255.4L306.809 257.2C304.276 264.8 300.609 270.933 295.809 275.6C291.009 280.133 285.409 282.933 279.009 284C276.876 289.467 273.343 293.533 268.409 296.2C263.609 298.867 258.143 300.2 252.009 300.2ZM265.009 277.6C265.276 276.667 265.409 275.6 265.409 274.4C265.543 273.067 265.609 272.067 265.609 271.4C265.476 265.4 264.676 259.467 263.209 253.6C261.743 247.733 260.276 241.733 258.809 235.6C256.409 239.733 253.609 244.2 250.409 249C247.209 253.8 244.209 257.667 241.409 260.6C243.543 264.2 246.676 267.6 250.809 270.8C254.943 274 259.676 276.267 265.009 277.6ZM250.609 291.4C253.276 291.4 255.743 290.733 258.009 289.4C260.276 288.067 262.076 286.133 263.409 283.6C257.943 282.4 253.009 280.267 248.609 277.2C244.209 274.133 240.809 271 238.409 267.8C236.543 268.2 235.609 270 235.609 273.2C235.609 277.6 236.876 281.733 239.409 285.6C241.943 289.467 245.676 291.4 250.609 291.4Z" fill="#FF6787" fill-opacity="0.6"/>
<path d="M338.327 205.8C335.793 205.8 333.46 205.2 331.327 204C329.327 202.667 328.327 200.667 328.327 198C328.327 194.8 330.06 192.067 333.527 189.8C336.993 187.533 340.593 186.4 344.327 186.4C346.727 186.4 348.727 186.933 350.327 188C352.06 189.067 352.927 191 352.927 193.8C352.927 196.6 351.393 199.333 348.327 202C345.26 204.533 341.927 205.8 338.327 205.8ZM314.727 296C308.86 296 304.46 294.267 301.527 290.8C298.593 287.333 297.127 283.133 297.127 278.2C297.127 275.133 297.66 271.267 298.727 266.6C299.793 261.933 301.26 257.067 303.127 252C305.127 246.8 307.393 241.933 309.927 237.4C312.46 232.867 315.193 229.2 318.127 226.4C321.06 223.467 323.993 222 326.927 222C328.527 222 329.927 222.533 331.127 223.6C332.327 224.533 332.927 225.933 332.927 227.8C332.927 229.533 331.86 232.133 329.727 235.6C327.727 239.067 325.327 243.067 322.527 247.6C319.86 252.133 317.46 256.867 315.327 261.8C313.327 266.6 312.327 271.2 312.327 275.6C312.327 279.867 313.06 282.733 314.527 284.2C316.127 285.533 318.393 286.2 321.327 286.2C325.86 286.2 330.793 283.933 336.127 279.4C341.46 274.867 346.993 266.933 352.727 255.6L355.727 258.8C351.06 270.533 345.127 279.667 337.927 286.2C330.727 292.733 322.993 296 314.727 296Z" fill="#FF6787" fill-opacity="0.6"/>
<path d="M365.755 299.2C359.888 299.2 355.155 297.467 351.555 294C347.955 290.533 346.155 285.267 346.155 278.2C346.155 272.733 347.155 265.933 349.155 257.8C351.288 249.667 353.955 241.267 357.155 232.6C356.221 232.333 355.088 232.133 353.755 232C352.555 231.733 351.355 231.333 350.155 230.8V224.6C352.288 224.867 354.021 225.067 355.355 225.2C356.821 225.333 358.288 225.467 359.755 225.6C362.555 218.533 365.555 211.733 368.755 205.2C372.088 198.533 375.355 192.6 378.555 187.4C381.888 182.2 385.021 178.133 387.955 175.2C390.888 172.133 393.488 170.6 395.755 170.6C397.088 170.6 398.355 171.133 399.555 172.2C400.755 173.133 401.355 174.533 401.355 176.4C401.355 179.067 399.955 182.867 397.155 187.8C394.488 192.733 391.155 198.533 387.155 205.2C383.155 211.733 379.288 218.733 375.555 226.2H381.755C387.621 226.2 392.888 226.133 397.555 226C402.355 225.733 407.221 225.333 412.155 224.8V231.4C404.821 232.067 398.088 232.6 391.955 233C385.821 233.4 379.955 233.667 374.355 233.8H371.955C369.155 240.333 366.688 247.067 364.555 254C362.555 260.8 361.555 267.467 361.555 274C361.555 279.467 362.421 283.333 364.155 285.6C365.888 287.867 368.621 289 372.355 289C379.021 289 385.821 286 392.755 280C399.821 273.867 405.955 265.6 411.155 255.2L413.955 257.2C410.488 265.067 406.155 272.2 400.955 278.6C395.888 285 390.355 290 384.355 293.6C378.355 297.333 372.155 299.2 365.755 299.2Z" fill="#FF6787" fill-opacity="0.6"/>
<path d="M416.372 299.4C411.972 299.4 408.172 297.933 404.972 295C401.639 292.067 399.972 287.667 399.972 281.8C399.972 277.133 401.039 272.067 403.172 266.6C405.305 261.133 408.239 255.733 411.972 250.4C415.705 245.067 419.972 240.267 424.772 236C429.572 231.6 434.705 228.067 440.172 225.4C445.639 222.733 451.105 221.4 456.572 221.4C462.305 221.4 467.172 222.867 471.172 225.8C475.172 228.733 477.172 232.6 477.172 237.4C477.172 241 475.905 243.6 473.372 245.2C470.839 246.8 467.839 247.267 464.372 246.6C464.639 245.4 464.839 244.2 464.972 243C465.239 241.8 465.372 240.533 465.372 239.2C465.372 236.533 464.839 234.133 463.772 232C462.705 229.867 460.439 228.8 456.972 228.8C453.239 228.8 449.439 230.067 445.572 232.6C441.705 235.133 437.972 238.467 434.372 242.6C430.905 246.6 427.772 251.067 424.972 256C422.172 260.8 419.972 265.533 418.372 270.2C416.772 274.867 415.972 279.067 415.972 282.8C415.972 287.067 417.505 289.2 420.572 289.2C423.639 289.2 427.039 287.733 430.772 284.8C434.505 281.733 438.239 277.933 441.972 273.4C445.839 268.867 449.505 264.267 452.972 259.6C456.439 254.8 459.439 250.733 461.972 247.4C462.372 246.733 462.905 246.4 463.572 246.4C464.105 246.533 465.105 246.867 466.572 247.4C468.172 247.8 469.639 248.467 470.972 249.4C472.305 250.333 472.972 251.533 472.972 253C472.972 254.733 472.039 257.133 470.172 260.2C468.305 263.133 466.372 266.333 464.372 269.8C462.505 273.267 461.572 276.467 461.572 279.4C461.572 281.133 462.039 282.8 462.972 284.4C463.905 285.867 465.439 286.6 467.572 286.6C470.772 286.6 475.239 284.267 480.972 279.6C486.839 274.8 492.772 266.733 498.772 255.4L502.572 259.2C497.639 270.133 491.505 279 484.172 285.8C476.839 292.6 469.439 296 461.972 296C456.505 296 452.439 294.267 449.772 290.8C447.105 287.333 445.639 283.6 445.372 279.6V278.6C440.039 285 435.105 290.067 430.572 293.8C426.172 297.533 421.439 299.4 416.372 299.4Z" fill="#FF6787" fill-opacity="0.6"/>
<path d="M3 307.4C3.93333 304.6 7.06667 297.4 12.4 285.8C17.8667 274.067 25.2 258.267 34.4 238.4C43.7333 218.4 54.6667 194.667 67.2 167.2C67.7333 166.133 68.1333 165 68.4 163.8C68.8 162.6 69 161.533 69 160.6C69 159.267 68.6 158.2 67.8 157.4C67 156.6 65.4667 156.2 63.2 156.2C57.6 156.2 53 157.933 49.4 161.4C45.9333 164.733 43.3333 168.867 41.6 173.8C40 178.733 39.2 183.6 39.2 188.4C39.2 189.6 39.2667 191 39.4 192.6C39.5333 194.2 39.7333 196 40 198C36.8 198 34.1333 197.067 32 195.2C30 193.2 28.4667 190.8 27.4 188C26.3333 185.067 25.8 182.333 25.8 179.8C25.8 175.533 27 171.4 29.4 167.4C31.9333 163.4 35.2 159.8 39.2 156.6C43.2 153.267 47.6 150.667 52.4 148.8C57.3333 146.933 62.2 146 67 146C71.9333 146 76.1333 147.4 79.6 150.2C83.0667 152.867 85.7333 157.8 87.6 165C89.4667 172.067 90.4 182.267 90.4 195.6C90.4 204.267 90.0667 213.067 89.4 222C88.8667 230.8 88.2667 239.067 87.6 246.8C86.9333 254.533 86.6 261.133 86.6 266.6C89.2667 258.733 92.5333 250.4 96.4 241.6C100.4 232.667 104.667 223.867 109.2 215.2C113.733 206.4 118.2 198.133 122.6 190.4C127 182.667 130.933 175.933 134.4 170.2C138 164.333 140.733 160 142.6 157.2C144.467 154.267 146.133 152.067 147.6 150.6C149.067 149.133 151.067 148.4 153.6 148.4C155.467 148.4 158.4 149.133 162.4 150.6C161.2 153.133 159.8 157.2 158.2 162.8C156.6 168.267 154.867 174.667 153 182C151 190 149 198.8 147 208.4C145 217.867 143.2 227.467 141.6 237.2C140 246.933 138.667 256.2 137.6 265C136.667 273.667 136.2 281.333 136.2 288C136.2 291.467 136.333 294.2 136.6 296.2C137 298.2 137.467 299.933 138 301.4C138.667 303 139.4 305 140.2 307.4C134.467 307.4 130.067 306.533 127 304.8C124.067 303.067 122.067 300.267 121 296.4C120.067 292.667 119.6 287.667 119.6 281.4C119.6 266.6 121.267 251.067 124.6 234.8C128.067 218.4 132.067 201.533 136.6 184.2C132.867 189.533 129 195.867 125 203.2C121 210.533 117.067 218.267 113.2 226.4C109.333 234.533 105.667 242.6 102.2 250.6C98.7333 258.467 95.6667 265.8 93 272.6C90.3333 279.267 88.2667 284.867 86.8 289.4C84.8 290.067 83.4 290.4 82.6 290.4C77.9333 290.4 74.9333 287.6 73.6 282C72.4 276.267 71.8 268.467 71.8 258.6C71.8 251.533 71.9333 244 72.2 236C72.4667 227.867 72.7333 219.667 73 211.4C73.2667 203 73.4 195.067 73.4 187.6C73.4 185.6 73.3333 183.6 73.2 181.6C73.2 179.6 73.2 177.667 73.2 175.8C63.0667 199.4 54.4667 219.6 47.4 236.4C40.4667 253.067 34.5333 266.667 29.6 277.2C24.6667 287.6 20.1333 295.2 16 300C11.8667 304.933 7.53333 307.4 3 307.4Z" stroke="white" stroke-width="4" mask="url(#path-3-outside-1)"/>
<path d="M183.645 298.8C175.112 298.8 168.512 296.467 163.845 291.8C159.312 287.267 157.045 281.533 157.045 274.6C157.045 268.733 158.512 262.533 161.445 256C164.512 249.333 168.579 243.133 173.645 237.4C178.712 231.533 184.312 226.8 190.445 223.2C196.579 219.6 202.712 217.8 208.845 217.8C212.312 217.8 215.579 218.733 218.645 220.6C221.845 222.333 223.445 225.867 223.445 231.2C223.445 236.267 221.979 241 219.045 245.4C216.112 249.8 212.179 253.733 207.245 257.2C202.312 260.667 196.845 263.533 190.845 265.8C184.979 267.933 179.045 269.333 173.045 270C172.912 270.533 172.779 271.133 172.645 271.8C172.645 272.333 172.645 273.267 172.645 274.6C172.645 275.267 172.712 276.467 172.845 278.2C173.112 279.8 173.712 281.533 174.645 283.4C175.579 285.267 177.112 286.867 179.245 288.2C181.379 289.533 184.312 290.2 188.045 290.2C193.645 290.2 199.245 288.667 204.845 285.6C210.579 282.4 215.912 278.2 220.845 273C225.912 267.8 230.112 262 233.445 255.6L237.445 258.8C233.845 266.8 229.179 273.8 223.445 279.8C217.845 285.8 211.579 290.467 204.645 293.8C197.845 297.133 190.845 298.8 183.645 298.8ZM175.245 262.6C178.712 262.2 182.579 261 186.845 259C191.112 257 195.179 254.467 199.045 251.4C203.045 248.333 206.312 245 208.845 241.4C211.379 237.667 212.645 233.933 212.645 230.2C212.645 228.733 212.379 227.733 211.845 227.2C211.312 226.667 210.445 226.4 209.245 226.4C206.179 226.4 202.979 227.533 199.645 229.8C196.312 231.933 193.045 234.8 189.845 238.4C186.645 241.867 183.779 245.733 181.245 250C178.712 254.267 176.712 258.467 175.245 262.6Z" stroke="white" stroke-width="4" mask="url(#path-3-outside-1)"/>
<path d="M252.009 300.2C245.343 300.2 239.943 298.8 235.809 296C231.809 293.333 228.943 289.933 227.209 285.8C225.476 281.533 224.609 277.2 224.609 272.8C224.609 268.933 225.143 265.933 226.209 263.8C227.276 261.667 228.609 260.133 230.209 259.2C231.809 258.133 233.276 257.333 234.609 256.8C236.076 256.267 237.143 255.667 237.809 255C241.143 251.533 244.543 247.533 248.009 243C251.609 238.333 254.676 233.2 257.209 227.6V225.6C257.209 220.267 258.076 216.533 259.809 214.4C261.676 212.133 263.809 211 266.209 211C267.809 211 268.943 211.4 269.609 212.2C270.409 213 270.876 213.933 271.009 215C271.009 215.8 270.809 216.733 270.409 217.8C270.143 218.867 270.009 220.333 270.009 222.2C270.009 226.2 270.943 230.8 272.809 236C274.809 241.067 276.743 246.467 278.609 252.2C280.609 257.933 281.609 263.8 281.609 269.8C281.609 271.4 281.543 272.867 281.409 274.2C281.276 275.533 281.076 276.8 280.809 278C284.943 276.933 289.009 274.667 293.009 271.2C297.009 267.6 300.809 262.333 304.409 255.4L306.809 257.2C304.276 264.8 300.609 270.933 295.809 275.6C291.009 280.133 285.409 282.933 279.009 284C276.876 289.467 273.343 293.533 268.409 296.2C263.609 298.867 258.143 300.2 252.009 300.2ZM265.009 277.6C265.276 276.667 265.409 275.6 265.409 274.4C265.543 273.067 265.609 272.067 265.609 271.4C265.476 265.4 264.676 259.467 263.209 253.6C261.743 247.733 260.276 241.733 258.809 235.6C256.409 239.733 253.609 244.2 250.409 249C247.209 253.8 244.209 257.667 241.409 260.6C243.543 264.2 246.676 267.6 250.809 270.8C254.943 274 259.676 276.267 265.009 277.6ZM250.609 291.4C253.276 291.4 255.743 290.733 258.009 289.4C260.276 288.067 262.076 286.133 263.409 283.6C257.943 282.4 253.009 280.267 248.609 277.2C244.209 274.133 240.809 271 238.409 267.8C236.543 268.2 235.609 270 235.609 273.2C235.609 277.6 236.876 281.733 239.409 285.6C241.943 289.467 245.676 291.4 250.609 291.4Z" stroke="white" stroke-width="4" mask="url(#path-3-outside-1)"/>
<path d="M338.327 205.8C335.793 205.8 333.46 205.2 331.327 204C329.327 202.667 328.327 200.667 328.327 198C328.327 194.8 330.06 192.067 333.527 189.8C336.993 187.533 340.593 186.4 344.327 186.4C346.727 186.4 348.727 186.933 350.327 188C352.06 189.067 352.927 191 352.927 193.8C352.927 196.6 351.393 199.333 348.327 202C345.26 204.533 341.927 205.8 338.327 205.8ZM314.727 296C308.86 296 304.46 294.267 301.527 290.8C298.593 287.333 297.127 283.133 297.127 278.2C297.127 275.133 297.66 271.267 298.727 266.6C299.793 261.933 301.26 257.067 303.127 252C305.127 246.8 307.393 241.933 309.927 237.4C312.46 232.867 315.193 229.2 318.127 226.4C321.06 223.467 323.993 222 326.927 222C328.527 222 329.927 222.533 331.127 223.6C332.327 224.533 332.927 225.933 332.927 227.8C332.927 229.533 331.86 232.133 329.727 235.6C327.727 239.067 325.327 243.067 322.527 247.6C319.86 252.133 317.46 256.867 315.327 261.8C313.327 266.6 312.327 271.2 312.327 275.6C312.327 279.867 313.06 282.733 314.527 284.2C316.127 285.533 318.393 286.2 321.327 286.2C325.86 286.2 330.793 283.933 336.127 279.4C341.46 274.867 346.993 266.933 352.727 255.6L355.727 258.8C351.06 270.533 345.127 279.667 337.927 286.2C330.727 292.733 322.993 296 314.727 296Z" stroke="white" stroke-width="4" mask="url(#path-3-outside-1)"/>
<path d="M365.755 299.2C359.888 299.2 355.155 297.467 351.555 294C347.955 290.533 346.155 285.267 346.155 278.2C346.155 272.733 347.155 265.933 349.155 257.8C351.288 249.667 353.955 241.267 357.155 232.6C356.221 232.333 355.088 232.133 353.755 232C352.555 231.733 351.355 231.333 350.155 230.8V224.6C352.288 224.867 354.021 225.067 355.355 225.2C356.821 225.333 358.288 225.467 359.755 225.6C362.555 218.533 365.555 211.733 368.755 205.2C372.088 198.533 375.355 192.6 378.555 187.4C381.888 182.2 385.021 178.133 387.955 175.2C390.888 172.133 393.488 170.6 395.755 170.6C397.088 170.6 398.355 171.133 399.555 172.2C400.755 173.133 401.355 174.533 401.355 176.4C401.355 179.067 399.955 182.867 397.155 187.8C394.488 192.733 391.155 198.533 387.155 205.2C383.155 211.733 379.288 218.733 375.555 226.2H381.755C387.621 226.2 392.888 226.133 397.555 226C402.355 225.733 407.221 225.333 412.155 224.8V231.4C404.821 232.067 398.088 232.6 391.955 233C385.821 233.4 379.955 233.667 374.355 233.8H371.955C369.155 240.333 366.688 247.067 364.555 254C362.555 260.8 361.555 267.467 361.555 274C361.555 279.467 362.421 283.333 364.155 285.6C365.888 287.867 368.621 289 372.355 289C379.021 289 385.821 286 392.755 280C399.821 273.867 405.955 265.6 411.155 255.2L413.955 257.2C410.488 265.067 406.155 272.2 400.955 278.6C395.888 285 390.355 290 384.355 293.6C378.355 297.333 372.155 299.2 365.755 299.2Z" stroke="white" stroke-width="4" mask="url(#path-3-outside-1)"/>
<path d="M416.372 299.4C411.972 299.4 408.172 297.933 404.972 295C401.639 292.067 399.972 287.667 399.972 281.8C399.972 277.133 401.039 272.067 403.172 266.6C405.305 261.133 408.239 255.733 411.972 250.4C415.705 245.067 419.972 240.267 424.772 236C429.572 231.6 434.705 228.067 440.172 225.4C445.639 222.733 451.105 221.4 456.572 221.4C462.305 221.4 467.172 222.867 471.172 225.8C475.172 228.733 477.172 232.6 477.172 237.4C477.172 241 475.905 243.6 473.372 245.2C470.839 246.8 467.839 247.267 464.372 246.6C464.639 245.4 464.839 244.2 464.972 243C465.239 241.8 465.372 240.533 465.372 239.2C465.372 236.533 464.839 234.133 463.772 232C462.705 229.867 460.439 228.8 456.972 228.8C453.239 228.8 449.439 230.067 445.572 232.6C441.705 235.133 437.972 238.467 434.372 242.6C430.905 246.6 427.772 251.067 424.972 256C422.172 260.8 419.972 265.533 418.372 270.2C416.772 274.867 415.972 279.067 415.972 282.8C415.972 287.067 417.505 289.2 420.572 289.2C423.639 289.2 427.039 287.733 430.772 284.8C434.505 281.733 438.239 277.933 441.972 273.4C445.839 268.867 449.505 264.267 452.972 259.6C456.439 254.8 459.439 250.733 461.972 247.4C462.372 246.733 462.905 246.4 463.572 246.4C464.105 246.533 465.105 246.867 466.572 247.4C468.172 247.8 469.639 248.467 470.972 249.4C472.305 250.333 472.972 251.533 472.972 253C472.972 254.733 472.039 257.133 470.172 260.2C468.305 263.133 466.372 266.333 464.372 269.8C462.505 273.267 461.572 276.467 461.572 279.4C461.572 281.133 462.039 282.8 462.972 284.4C463.905 285.867 465.439 286.6 467.572 286.6C470.772 286.6 475.239 284.267 480.972 279.6C486.839 274.8 492.772 266.733 498.772 255.4L502.572 259.2C497.639 270.133 491.505 279 484.172 285.8C476.839 292.6 469.439 296 461.972 296C456.505 296 452.439 294.267 449.772 290.8C447.105 287.333 445.639 283.6 445.372 279.6V278.6C440.039 285 435.105 290.067 430.572 293.8C426.172 297.533 421.439 299.4 416.372 299.4Z" stroke="white" stroke-width="4" mask="url(#path-3-outside-1)"/>
<path d="M105.493 339.533C105.032 339.46 104.572 339.294 104.112 339.036C103.67 338.778 103.149 338.35 102.551 337.752C101.962 337.162 101.234 336.352 100.369 335.321C99.5494 335.698 98.6241 336.173 97.5929 336.743L90.5909 340.569C82.1479 345.09 76.4211 346.636 73.4104 345.209C73.1894 345.117 72.9546 344.947 72.706 344.698C72.4666 344.459 72.3009 344.229 72.2088 344.008C72.1168 343.805 72.0661 343.607 72.0569 343.414C72.0201 343.046 72.0845 342.779 72.2503 342.613C72.416 342.447 72.5679 342.378 72.706 342.406L73.2861 342.544C75.4774 343.004 78.9945 341.918 83.8374 339.285L88.2016 336.909C92.1238 334.773 95.3371 333.226 97.8415 332.269C97.1785 331.477 96.6583 330.892 96.2808 330.515C95.1944 329.428 94.2599 328.798 93.4773 328.623C92.7039 328.457 92.041 328.457 91.4885 328.623C90.9545 328.788 90.6139 328.936 90.4666 329.065C90.1811 329.295 89.9325 329.378 89.7208 329.313C89.5182 329.24 89.3157 329.102 89.1131 328.899C88.9198 328.706 88.7863 328.434 88.7126 328.084C88.6481 327.725 88.6574 327.366 88.7402 327.007C88.8967 326.261 89.288 325.64 89.9141 325.142C90.5494 324.636 91.2215 324.332 91.9305 324.231C92.6578 324.13 93.3622 324.162 94.0435 324.328C95.3049 324.631 96.3683 325.216 97.2338 326.082C98.1085 326.956 98.8865 327.826 99.5678 328.692C100.268 329.557 100.949 330.432 101.612 331.316C103.389 333.645 104.558 335.091 105.12 335.652C105.681 336.214 106.128 336.596 106.459 336.799C106.8 337.01 107.131 337.149 107.454 337.213C107.776 337.277 107.992 337.328 108.103 337.365C108.232 337.402 108.384 337.508 108.559 337.683C108.835 337.959 108.743 338.29 108.282 338.677C107.831 339.054 107.371 339.312 106.901 339.45C106.441 339.579 105.971 339.607 105.493 339.533Z" fill="#FF6787"/>
<path d="M89.4292 351.177C90.267 350.413 91.1647 349.782 92.1223 349.285C93.089 348.778 94.1064 348.378 95.1744 348.083C96.2517 347.779 97.3519 347.581 98.4752 347.489C99.6169 347.397 100.722 347.425 101.79 347.572C104.092 347.904 105.915 348.742 107.259 350.086C108.833 351.66 109.234 353.359 108.46 355.182C108.202 355.808 107.765 356.42 107.148 357.019C106.541 357.608 105.868 358.05 105.132 358.345C104.405 358.63 103.631 358.787 102.812 358.814C102.011 358.842 101.173 358.75 100.298 358.538C99.4327 358.335 98.5673 358.032 97.7018 357.626C95.934 356.779 94.2951 355.619 92.7852 354.146C92.6195 354.238 92.4031 354.409 92.1361 354.657C91.8691 354.906 91.6067 355.223 91.3489 355.61C91.1003 355.988 90.9299 356.379 90.8379 356.784C90.6169 357.668 90.8195 358.423 91.4455 359.049C92.5136 360.117 93.867 360.844 95.5059 361.231C96.0767 361.378 96.5831 361.452 97.0251 361.452C97.4854 361.452 97.7985 361.535 97.9642 361.701C98.1299 361.866 98.1713 362.11 98.0885 362.433C98.024 362.755 97.8675 363.04 97.6189 363.289C97.1309 363.777 96.5693 364.062 95.934 364.145C93.6138 364.145 91.3074 362.999 89.0149 360.706C87.6614 359.353 86.9801 357.861 86.9709 356.232C86.9709 354.39 87.7903 352.705 89.4292 351.177ZM105.118 351.619C104.151 350.652 102.559 350.385 100.34 350.818C98.443 351.204 96.4818 351.95 94.4563 353.055C96.1504 354.436 98.0931 355.164 100.284 355.237C102.319 355.283 103.792 354.85 104.704 353.939C105.615 353.027 105.753 352.254 105.118 351.619Z" fill="#FF6787"/>
<path d="M122.108 390.56C121.261 391.407 121.137 392.13 121.735 392.728C122.149 393.142 122.555 393.419 122.95 393.557C123.356 393.704 123.604 393.824 123.696 393.916C123.89 394.109 123.885 394.307 123.682 394.51C122.891 395.301 121.795 395.568 120.395 395.311C118.922 395.034 117.882 394.289 117.274 393.073C116.888 392.263 116.901 391.365 117.316 390.38C117.537 389.883 117.794 389.487 118.089 389.192C118.568 388.714 119.12 388.253 119.746 387.811C117.141 388.705 114.871 388.847 112.938 388.24C112.174 387.991 111.506 387.581 110.935 387.01C110.364 386.44 109.982 385.827 109.789 385.174C109.614 384.52 109.586 383.839 109.706 383.13C109.973 381.666 110.788 380.308 112.151 379.055C113.845 377.472 115.935 376.349 118.421 375.686C120.732 375.05 122.992 374.908 125.202 375.258C127.43 375.589 129.101 376.312 130.215 377.426C131.329 378.54 131.716 379.949 131.375 381.652C133.032 381.265 134.105 381.316 134.593 381.804C135.118 382.329 135.417 382.821 135.491 383.282C135.629 384.156 135.486 384.658 135.062 384.787C128.019 387.208 123.885 388.967 122.66 390.063C122.476 390.21 122.292 390.376 122.108 390.56ZM114.388 382.95C113.283 384.055 113.085 384.962 113.794 385.671C114.337 386.214 115.465 386.421 117.178 386.292C119.691 386.099 122.541 385.302 125.726 383.903C126.73 383.47 127.688 382.991 128.599 382.467C129.188 381.804 129.386 381.081 129.193 380.298C129.128 380.031 128.93 379.732 128.599 379.401C128.277 379.078 127.775 378.816 127.094 378.614C126.422 378.42 125.671 378.323 124.843 378.323C124.023 378.333 123.148 378.443 122.218 378.655C121.307 378.867 120.386 379.171 119.456 379.566C117.477 380.423 115.787 381.551 114.388 382.95Z" fill="#FF6787"/>
<path d="M128.318 401.128C128.437 400.687 128.653 400.242 128.966 399.794C129.288 399.335 129.717 398.881 130.255 398.431C130.81 397.977 131.424 397.533 132.095 397.097C132.766 396.66 133.469 396.223 134.206 395.785L136.414 394.47C139.248 392.783 140.682 391.609 140.715 390.949C140.729 390.656 140.631 390.286 140.421 389.837C140.345 389.672 140.371 389.5 140.498 389.318C140.632 389.126 140.834 388.997 141.103 388.931C141.382 388.872 141.689 388.865 142.024 388.909C142.719 389.029 143.327 389.273 143.85 389.639C144.373 390.005 144.726 390.34 144.911 390.644C145.113 390.945 145.24 391.24 145.291 391.53C145.397 392.129 145.3 392.641 145.002 393.068C144.703 393.494 144.297 393.926 143.785 394.362C143.281 394.788 142.7 395.231 142.043 395.693C141.385 396.155 140.692 396.623 139.962 397.098C138.017 398.31 136.721 399.104 136.077 399.48L134.623 400.297C133.777 400.801 133.249 401.203 133.04 401.502C132.831 401.8 132.729 402.047 132.736 402.242C132.75 402.427 132.879 402.605 133.125 402.777C133.381 402.956 133.725 403.054 134.158 403.071C134.602 403.096 135.112 403.072 135.688 402.998C136.264 402.925 136.884 402.811 137.549 402.656C138.231 402.498 138.915 402.317 139.598 402.112C141.369 401.604 142.779 401.089 143.828 400.567C149.104 397.935 151.879 396.572 152.152 396.477C152.825 396.265 153.337 396.282 153.689 396.528C154.052 396.782 154.337 397.045 154.544 397.317C154.758 397.579 154.909 397.851 154.996 398.135C155.206 398.743 155.092 399.179 154.652 399.444C154.223 399.716 153.656 400.106 152.951 400.613C146.81 405.071 142.927 407.813 141.303 408.838C139.69 409.87 138.353 410.666 137.293 411.227C136.225 411.799 135.074 412.32 133.838 412.79C132.614 413.268 131.402 413.636 130.204 413.894C127.482 414.467 125.397 414.335 123.95 413.496C123.397 413.173 123.034 412.807 122.859 412.398C122.55 411.705 122.496 411.214 122.697 410.926C122.899 410.638 123.281 410.604 123.843 410.822C124.408 411.059 125.067 411.186 125.817 411.203C126.572 411.239 127.346 411.2 128.139 411.089C130.488 410.73 132.605 410.035 134.489 409.001C136.121 408.078 137.573 407.139 138.844 406.186L142.758 403.252C142.188 403.409 141.54 403.607 140.816 403.847L138.588 404.576C136.697 405.143 135.234 405.462 134.199 405.532C132.231 405.664 130.751 405.383 129.759 404.689C128.437 403.762 127.956 402.576 128.318 401.128Z" fill="#FF6787"/>
<path d="M162.335 425.259C162.598 425.402 162.658 425.605 162.515 425.868C161.975 426.863 161.029 427.431 159.679 427.572C158.779 427.647 157.883 427.442 156.99 426.957C156.258 426.559 155.79 426.083 155.588 425.529C155.225 424.532 155.286 423.587 155.771 422.695C156.386 421.562 157.802 420.086 160.019 418.267C156.965 419.691 154.868 420.604 153.73 421.009C152.598 421.402 151.651 421.673 150.889 421.822C149.235 422.139 147.945 422.045 147.018 421.542C145.599 420.772 144.987 419.647 145.183 418.168C145.25 417.716 145.415 417.249 145.676 416.769C145.943 416.277 146.318 415.777 146.801 415.269C147.302 414.755 147.862 414.244 148.479 413.735C149.096 413.225 149.746 412.711 150.427 412.192L152.473 410.636C155.098 408.639 156.39 407.31 156.348 406.651C156.329 406.359 156.189 406.001 155.93 405.579C155.836 405.424 155.842 405.25 155.947 405.055C156.059 404.849 156.245 404.698 156.505 404.602C156.776 404.512 157.08 404.47 157.418 404.476C158.121 404.517 158.754 404.69 159.314 404.994C159.875 405.299 160.264 405.591 160.482 405.873C160.717 406.149 160.877 406.428 160.96 406.71C161.133 407.293 161.095 407.813 160.847 408.271C160.598 408.729 160.244 409.203 159.785 409.695C159.331 410.174 158.805 410.681 158.204 411.214C157.603 411.747 156.967 412.291 156.296 412.845C154.5 414.27 153.303 415.206 152.705 415.652L151.353 416.628C150.569 417.225 150.09 417.684 149.916 418.004C149.742 418.325 149.67 418.582 149.698 418.775C149.733 418.957 149.882 419.119 150.145 419.262C150.419 419.411 150.802 419.456 151.294 419.397C151.785 419.338 152.358 419.211 153.011 419.018C153.664 418.824 154.369 418.577 155.125 418.277C155.887 417.964 156.647 417.629 157.405 417.27C158.897 416.569 160.036 415.972 160.821 415.48C165.577 412.506 168.088 410.966 168.354 410.858C168.987 410.565 169.493 410.521 169.87 410.726C170.259 410.937 170.572 411.166 170.808 411.413C171.051 411.648 171.232 411.902 171.351 412.174C171.639 412.79 171.601 413.229 171.236 413.49C165.282 417.798 161.789 420.643 160.758 422.024C160.421 422.508 160.199 422.847 160.094 423.042C159.622 423.911 159.649 424.489 160.175 424.775C160.667 425.042 161.12 425.177 161.534 425.179C161.953 425.17 162.221 425.196 162.335 425.259Z" fill="#FF6787"/>
<path d="M184.22 438.454C184.483 438.529 184.575 438.705 184.496 438.98C184.189 440.057 183.367 440.824 182.031 441.281C181.142 441.596 180.365 441.659 179.702 441.469C179.051 441.283 178.553 441.059 178.208 440.798C177.863 440.537 177.58 440.199 177.36 439.784C176.874 438.832 176.818 437.699 177.194 436.385C177.269 436.122 177.439 435.717 177.704 435.169C176.243 436.444 175.058 437.297 174.149 437.728C172.305 438.637 170.682 438.89 169.28 438.489C167.064 437.856 165.898 436.439 165.782 434.239C165.743 433.429 165.882 432.467 166.201 431.353C166.519 430.238 167.01 429.16 167.674 428.117C168.338 427.075 169.104 426.122 169.974 425.261C170.856 424.402 171.804 423.644 172.818 422.986C173.848 422.319 174.882 421.782 175.919 421.374C178.137 420.532 179.985 420.322 181.462 420.744C182.94 421.167 183.951 422.106 184.496 423.562C188.808 416.723 191.706 412.791 193.19 411.767C193.811 411.348 194.378 411.212 194.891 411.359C195.743 411.603 196.317 412.031 196.616 412.645C196.707 412.847 196.73 413.029 196.683 413.192C196.637 413.355 196.45 413.626 196.125 414.007C195.799 414.388 195.303 415.011 194.636 415.877C192.68 418.501 191.282 420.43 190.442 421.666C188.291 424.83 186.828 427.011 186.051 428.211L184.025 431.39C182.253 434.228 181.246 436.067 181.006 436.906C180.767 437.744 180.953 438.252 181.567 438.427C182.13 438.588 182.602 438.642 182.983 438.588L183.794 438.454C183.953 438.418 184.095 438.418 184.22 438.454ZM170.986 435.93C172.276 436.299 174.113 435.463 176.497 433.423C178.982 431.316 181.007 428.828 182.572 425.957C182.765 425.092 182.588 424.364 182.039 423.773C181.853 423.571 181.528 423.404 181.065 423.272C180.614 423.143 180.034 423.16 179.324 423.322C178.63 423.476 177.914 423.752 177.177 424.151C176.453 424.553 175.731 425.065 175.012 425.685C174.309 426.297 173.654 426.976 173.048 427.724C171.729 429.351 170.814 431.06 170.303 432.85C169.794 434.628 170.022 435.655 170.986 435.93Z" fill="#FF6787"/>
<path d="M205.373 443.405C205.135 444.579 205.43 445.25 206.26 445.419C206.834 445.535 207.324 445.541 207.731 445.438C208.15 445.337 208.423 445.299 208.551 445.325C208.819 445.379 208.924 445.547 208.867 445.827C208.645 446.925 207.879 447.753 206.57 448.311C205.19 448.895 203.911 448.848 202.733 448.171C201.963 447.71 201.478 446.954 201.279 445.904C201.189 445.367 201.185 444.895 201.267 444.486C201.402 443.823 201.608 443.134 201.886 442.42C200.207 444.604 198.395 445.977 196.447 446.539C195.673 446.754 194.89 446.781 194.099 446.621C193.308 446.461 192.651 446.161 192.129 445.723C191.622 445.275 191.222 444.723 190.93 444.066C190.344 442.698 190.273 441.116 190.716 439.319C191.253 437.063 192.375 434.972 194.08 433.046C195.655 431.239 197.46 429.871 199.495 428.942C201.536 427.987 203.328 427.666 204.872 427.979C206.416 428.292 207.517 429.252 208.174 430.86C209.342 429.622 210.264 429.072 210.94 429.209C211.667 429.356 212.189 429.601 212.505 429.944C213.103 430.597 213.261 431.094 212.98 431.436C208.447 437.346 205.973 441.096 205.558 442.686C205.486 442.91 205.424 443.15 205.373 443.405ZM194.733 441.329C194.423 442.86 194.759 443.726 195.742 443.925C196.495 444.077 197.549 443.627 198.905 442.573C200.893 441.023 202.828 438.784 204.71 435.858C205.307 434.942 205.841 434.014 206.311 433.073C206.435 432.195 206.201 431.483 205.607 430.938C205.406 430.751 205.076 430.611 204.616 430.518C204.17 430.427 203.607 430.486 202.927 430.694C202.26 430.904 201.581 431.238 200.89 431.696C200.212 432.156 199.544 432.732 198.886 433.422C198.244 434.102 197.644 434.864 197.088 435.708C195.911 437.516 195.126 439.389 194.733 441.329Z" fill="#FF6787"/>
<path d="M231.403 437.402C230.653 437.311 229.152 438.232 226.9 440.164C225.209 441.679 223.976 442.822 223.201 443.594L221.19 445.594C220.269 446.926 219.538 448.038 218.998 448.93L217.68 451.054C217.341 451.577 217.054 451.942 216.82 452.15C216.599 452.347 216.314 452.424 215.965 452.382C215.629 452.341 215.307 452.237 215 452.069C214.704 451.915 214.451 451.727 214.241 451.505C213.8 451.032 213.609 450.55 213.668 450.059C213.691 449.865 213.88 449.501 214.233 448.966L215.159 447.484C215.447 447.047 215.79 446.485 216.188 445.799L217.594 443.273C219.579 439.643 220.638 437.272 220.772 436.16C220.844 435.566 220.703 435.103 220.349 434.772L219.994 434.454C219.876 434.347 219.83 434.185 219.856 433.965C219.884 433.732 219.995 433.522 220.188 433.336C220.393 433.151 220.648 432.998 220.951 432.877C221.569 432.65 222.168 432.571 222.75 432.641C223.345 432.713 223.802 432.834 224.123 433.003C224.443 433.173 224.713 433.383 224.932 433.632C225.369 434.144 225.558 434.645 225.499 435.136C225.439 435.628 225.315 436.117 225.125 436.606C224.936 437.082 224.714 437.566 224.458 438.06C224.203 438.541 223.937 439.007 223.66 439.459C223.009 440.509 222.603 441.155 222.443 441.398C222.297 441.629 222.254 441.716 222.313 441.658C225.048 438.879 226.688 437.24 227.233 436.742C228.367 435.711 229.238 435.016 229.845 434.657C230.958 434.017 231.967 433.752 232.872 433.861C233.79 433.971 234.486 434.343 234.961 434.978C235.435 435.612 235.616 436.394 235.504 437.325C235.406 438.14 235.084 439.071 234.538 440.12C233.992 441.169 233.621 441.905 233.426 442.327L236.73 438.909L238.549 437.2C239.634 436.242 240.56 435.639 241.324 435.39C242.088 435.141 242.697 435.044 243.149 435.099C243.615 435.155 244.057 435.293 244.476 435.514C244.909 435.737 245.261 436.022 245.534 436.369C246.117 437.082 246.345 437.962 246.219 439.009C246.098 440.018 245.741 441.024 245.148 442.028C244.554 443.032 244.042 443.855 243.611 444.498C243.181 445.129 242.763 445.767 242.357 446.413C241.166 448.355 240.51 449.823 240.39 450.819C240.306 451.517 240.548 451.9 241.117 451.969C241.66 452.034 242.165 451.977 242.633 451.797C243.113 451.619 243.418 451.538 243.548 451.553C243.819 451.586 243.938 451.738 243.906 452.01C243.767 453.16 243.063 454.052 241.793 454.686C240.941 455.121 240.185 455.299 239.526 455.22C238.879 455.142 238.365 455.001 237.983 454.798C237.601 454.594 237.268 454.305 236.986 453.93C236.352 453.093 236.103 452.112 236.239 450.988C236.374 449.863 236.641 448.846 237.039 447.936C237.437 447.027 237.883 446.156 238.377 445.324C238.872 444.478 239.358 443.711 239.834 443.021C240.325 442.319 240.701 441.761 240.961 441.346C241.483 440.491 241.77 439.851 241.822 439.424C241.883 438.92 241.648 438.636 241.118 438.572C240.42 438.488 239.026 439.494 236.938 441.59C235.351 443.222 234.245 444.4 233.62 445.125L232.049 446.903C231.128 448.234 230.41 449.348 229.895 450.243L228.635 452.373C228.323 452.9 228.062 453.268 227.853 453.479C227.646 453.677 227.38 453.757 227.057 453.718C226.734 453.679 226.423 453.589 226.126 453.448C225.841 453.309 225.599 453.142 225.399 452.948C224.94 452.512 224.735 452.087 224.785 451.674C224.837 451.247 225.042 450.688 225.4 449.997C225.774 449.294 226.221 448.515 226.744 447.66L230.15 442.248C231.377 440.231 232.024 438.939 232.093 438.37C232.163 437.788 231.933 437.465 231.403 437.402ZM232.664 443.101C232.677 443.103 232.684 443.097 232.686 443.084L232.71 443.048C232.681 443.07 232.665 443.088 232.664 443.101Z" fill="#FF6787"/>
<path d="M252.481 455.073C251.891 454.602 251.406 453.984 251.025 453.22C250.644 452.443 250.399 451.51 250.291 450.421C250.184 449.333 250.217 448.219 250.392 447.08C250.581 445.939 250.882 444.828 251.298 443.746C251.726 442.663 252.258 441.637 252.892 440.667C253.539 439.695 254.268 438.834 255.078 438.084C256.846 436.466 258.747 435.569 260.784 435.391C263.456 435.158 265.368 436.175 266.52 438.44C267.342 440.08 267.56 442.133 267.174 444.598C266.822 446.863 266.001 448.987 264.71 450.969C263.432 452.949 261.847 454.414 259.956 455.363C259.004 455.838 258.048 456.117 257.088 456.201C256.141 456.283 255.281 456.234 254.507 456.053C253.746 455.871 253.071 455.544 252.481 455.073ZM255.375 445.312C255.069 446.306 254.844 447.319 254.699 448.351C254.566 449.382 254.546 450.351 254.638 451.258C254.729 452.152 254.927 452.847 255.232 453.343C255.548 453.825 256.005 454.041 256.601 453.989C257.198 453.937 257.764 453.685 258.3 453.233C258.848 452.767 259.364 452.173 259.85 451.451C260.337 450.729 260.781 449.906 261.184 448.982C261.587 448.058 261.929 447.1 262.208 446.109C262.817 443.951 263.038 442.063 262.871 440.444C262.747 439.017 262.376 438.134 261.758 437.796C261.511 437.661 261.174 437.612 260.746 437.649C260.33 437.685 259.867 437.922 259.357 438.358C258.845 438.782 258.344 439.342 257.856 440.038C257.368 440.734 256.909 441.539 256.478 442.452C256.048 443.365 255.68 444.318 255.375 445.312Z" fill="#FF6787"/>
<path d="M271.57 452.533C271.463 452.144 271.447 451.763 271.52 451.392C271.603 451.005 271.739 450.664 271.928 450.369C272.321 449.734 272.807 449.338 273.384 449.18C273.887 449.042 274.208 449.23 274.35 449.745C274.708 451.051 275.391 451.843 276.398 452.12C276.764 452.222 277.116 452.227 277.455 452.134C277.794 452.041 278.073 451.924 278.291 451.783C278.509 451.642 278.696 451.463 278.852 451.244C279.204 450.756 279.311 450.261 279.173 449.759C279.036 449.257 278.797 448.829 278.457 448.477C278.114 448.112 277.709 447.744 277.243 447.372L275.756 446.16C273.698 444.564 272.437 442.918 271.972 441.223C271.586 439.817 271.833 438.379 272.712 436.909C273.714 435.243 275.275 434.12 277.397 433.537C279.256 433.028 280.832 433.088 282.126 433.719C283.183 434.226 283.842 434.956 284.104 435.911C284.376 436.903 284.216 437.797 283.625 438.594C283.091 439.307 282.467 439.688 281.751 439.736C281.432 439.756 281.158 439.669 280.93 439.475C280.698 439.268 280.589 438.994 280.603 438.653C280.617 438.312 280.578 437.971 280.485 437.632C280.392 437.293 280.243 436.996 280.038 436.742C279.834 436.488 279.597 436.289 279.328 436.147C278.775 435.853 278.254 435.773 277.764 435.908C277.287 436.039 276.907 436.204 276.624 436.403C276.338 436.589 276.103 436.816 275.919 437.082C275.553 437.669 275.462 438.294 275.644 438.96C275.823 439.613 276.091 440.147 276.448 440.562C276.805 440.977 277.212 441.379 277.67 441.766C278.14 442.151 278.636 442.534 279.16 442.917C279.684 443.3 280.183 443.717 280.657 444.167C281.796 445.218 282.498 446.227 282.764 447.194C283.025 448.149 283.045 449.007 282.822 449.771C282.596 450.521 282.226 451.217 281.713 451.857C280.624 453.249 279.231 454.178 277.536 454.643C275.916 455.088 274.529 455.05 273.373 454.529C272.416 454.09 271.815 453.424 271.57 452.533Z" fill="#FF6787"/>
<path d="M318.587 436.355C319.158 437.409 319.815 437.734 320.559 437.331C321.075 437.052 321.455 436.743 321.7 436.403C321.957 436.056 322.143 435.852 322.257 435.79C322.498 435.66 322.686 435.721 322.822 435.973C323.355 436.958 323.299 438.084 322.652 439.352C321.967 440.685 320.956 441.469 319.617 441.705C318.731 441.845 317.874 441.575 317.048 440.897C316.635 440.543 316.329 440.183 316.13 439.817C315.808 439.221 315.525 438.561 315.28 437.834C315.392 440.587 314.881 442.803 313.747 444.482C313.291 445.144 312.708 445.667 311.998 446.051C311.288 446.435 310.592 446.627 309.91 446.626C309.234 446.607 308.573 446.439 307.928 446.122C306.601 445.448 305.532 444.28 304.72 442.617C303.686 440.541 303.206 438.217 303.28 435.646C303.33 433.249 303.838 431.042 304.804 429.024C305.757 426.983 306.927 425.588 308.312 424.838C309.698 424.088 311.158 424.119 312.694 424.932C312.796 423.233 313.151 422.22 313.757 421.891C314.41 421.538 314.968 421.392 315.43 421.452C316.308 421.569 316.748 421.849 316.751 422.292C317.062 429.734 317.568 434.198 318.269 435.684C318.357 435.902 318.464 436.126 318.587 436.355ZM309.091 441.583C309.835 442.957 310.648 443.406 311.53 442.929C312.205 442.563 312.726 441.541 313.091 439.863C313.622 437.399 313.672 434.44 313.24 430.988C313.111 429.903 312.926 428.848 312.683 427.825C312.215 427.071 311.579 426.675 310.774 426.637C310.5 426.623 310.156 426.727 309.744 426.95C309.343 427.167 308.949 427.573 308.56 428.168C308.183 428.757 307.876 429.449 307.64 430.243C307.415 431.031 307.271 431.901 307.209 432.853C307.152 433.787 307.18 434.756 307.295 435.76C307.55 437.902 308.149 439.843 309.091 441.583Z" fill="#FF6787"/>
<path d="M342.669 423.765C341.927 422.909 341.3 421.957 340.788 420.909C340.277 419.842 339.887 418.754 339.618 417.644C339.359 416.526 339.224 415.399 339.215 414.265C339.215 413.122 339.341 412.022 339.595 410.965C340.117 408.75 341.144 406.947 342.677 405.555C344.258 404.12 345.906 403.776 347.622 404.522C348.236 404.791 348.795 405.224 349.301 405.82C349.808 406.397 350.193 407.006 350.457 407.646C350.713 408.275 350.881 408.897 350.962 409.509C351.144 410.891 350.936 411.854 350.339 412.396C349.674 413 349.016 413.263 348.365 413.186C347.796 413.122 347.373 412.829 347.094 412.309C347.009 412.157 346.995 411.967 347.052 411.74C347.1 411.502 347.135 411.172 347.155 410.749C347.187 409.525 346.819 408.461 346.051 407.557C345.528 406.942 344.89 406.976 344.138 407.658C343.328 408.394 342.891 409.617 342.827 411.328C342.734 413.822 343.359 416.341 344.702 418.885C345.867 421.099 347.144 422.331 348.533 422.582C349.347 422.723 350.077 422.5 350.723 421.914C351.812 420.925 352.513 419.585 352.825 417.895C352.914 417.374 352.942 416.9 352.907 416.475C352.872 416.049 352.937 415.762 353.101 415.613C353.265 415.464 353.474 415.424 353.729 415.491C353.985 415.54 354.226 415.69 354.454 415.941C354.97 416.51 355.222 417.301 355.21 418.314C355.037 420.758 354.03 422.815 352.188 424.487C350.617 425.914 348.995 426.568 347.323 426.451C345.67 426.334 344.118 425.439 342.669 423.765Z" fill="#FF6787"/>
<path d="M365.876 413.031C365.575 413.155 365.284 413.224 365.003 413.239C364.71 413.246 364.488 413.213 364.336 413.137C364.172 413.055 364.004 412.918 363.831 412.724C363.654 412.513 363.446 412.252 363.205 411.943C358.945 406.318 355.853 402.934 353.928 401.789C353.371 401.503 352.88 401.462 352.457 401.664L352.022 401.86C351.884 401.914 351.716 401.891 351.519 401.789C351.318 401.669 351.171 401.483 351.078 401.231C350.986 400.979 350.942 400.695 350.948 400.381C350.977 399.746 351.141 399.177 351.44 398.674C351.746 398.159 352.039 397.795 352.317 397.582C352.602 397.357 352.899 397.201 353.209 397.113C353.865 396.927 354.417 396.967 354.865 397.233C355.319 397.488 355.742 397.808 356.134 398.193C356.533 398.567 356.913 398.959 357.275 399.371C357.624 399.776 357.958 400.171 358.274 400.556C358.579 400.935 358.814 401.203 358.977 401.361C359.316 401.683 359.542 401.863 359.656 401.901C359.581 401.493 359.448 401.194 359.257 401.005L358.404 399.611C356.651 396.599 355.761 394.146 355.736 392.253C355.741 391.71 355.909 391.159 356.242 390.599C356.582 390.028 357.056 389.689 357.665 389.582C358.263 389.468 358.806 389.549 359.294 389.824C359.789 390.087 360.171 390.361 360.443 390.643C360.71 390.908 360.933 391.207 361.113 391.542C361.52 392.284 361.567 392.918 361.254 393.444C361.168 393.589 361.037 393.693 360.864 393.757L360.325 393.936C359.781 394.113 359.406 394.374 359.199 394.721C359 395.057 358.977 395.604 359.132 396.363C359.293 397.11 359.57 397.957 359.962 398.902C361.25 402.061 363.01 405.062 365.243 407.905L366.751 409.802C367.119 410.278 367.366 410.652 367.492 410.924C367.607 411.19 367.578 411.468 367.405 411.759C367.239 412.039 367.013 412.291 366.728 412.515C366.461 412.735 366.177 412.907 365.876 413.031Z" fill="#FF6787"/>
<path d="M370.494 398.624C369.783 397.741 369.209 396.806 368.772 395.819C368.327 394.823 367.99 393.783 367.762 392.699C367.525 391.605 367.396 390.494 367.373 389.368C367.352 388.223 367.448 387.121 367.661 386.065C368.134 383.788 369.083 382.02 370.508 380.761C372.176 379.287 373.896 378.993 375.668 379.877C376.277 380.173 376.861 380.648 377.42 381.3C377.971 381.943 378.371 382.641 378.619 383.395C378.859 384.138 378.967 384.92 378.944 385.739C378.922 386.541 378.779 387.371 378.513 388.231C378.258 389.082 377.901 389.927 377.443 390.766C376.488 392.478 375.229 394.042 373.665 395.458C373.747 395.629 373.904 395.856 374.135 396.138C374.367 396.42 374.668 396.701 375.038 396.982C375.399 397.254 375.779 397.448 376.178 397.565C377.046 397.84 377.812 397.685 378.476 397.098C379.608 396.098 380.418 394.793 380.905 393.181C381.087 392.62 381.192 392.119 381.219 391.678C381.248 391.219 381.35 390.911 381.526 390.756C381.701 390.601 381.947 390.575 382.264 390.677C382.581 390.762 382.857 390.935 383.089 391.199C383.546 391.716 383.796 392.294 383.84 392.934C383.697 395.249 382.41 397.48 379.98 399.627C378.545 400.894 377.015 401.482 375.387 401.39C373.55 401.277 371.919 400.355 370.494 398.624ZM371.905 382.993C370.881 383.898 370.516 385.471 370.81 387.713C371.079 389.629 371.702 391.633 372.68 393.723C374.163 392.117 375.009 390.223 375.218 388.041C375.39 386.013 375.049 384.516 374.195 383.55C373.342 382.584 372.579 382.398 371.905 382.993Z" fill="#FF6787"/>
<path d="M384.678 383.435C383.785 382.738 382.986 381.924 382.282 380.995C381.575 380.047 380.982 379.055 380.504 378.017C380.034 376.97 379.685 375.89 379.456 374.779C379.236 373.658 379.148 372.554 379.193 371.468C379.278 369.194 379.938 367.227 381.174 365.565C382.449 363.852 383.999 363.196 385.827 363.598C386.481 363.744 387.113 364.06 387.725 364.547C388.333 365.016 388.829 365.539 389.211 366.116C389.583 366.685 389.868 367.262 390.066 367.847C390.511 369.168 390.493 370.153 390.011 370.8C389.475 371.521 388.88 371.906 388.227 371.956C387.656 372.002 387.184 371.797 386.81 371.34C386.698 371.208 386.647 371.024 386.659 370.79C386.661 370.548 386.631 370.217 386.57 369.798C386.364 368.591 385.798 367.618 384.871 366.879C384.238 366.376 383.619 366.532 383.013 367.347C382.36 368.225 382.167 369.509 382.435 371.201C382.824 373.666 383.923 376.017 385.732 378.255C387.302 380.202 388.793 381.164 390.204 381.143C391.03 381.124 391.703 380.765 392.223 380.065C393.102 378.884 393.531 377.435 393.511 375.716C393.498 375.188 393.434 374.718 393.318 374.307C393.202 373.896 393.21 373.601 393.342 373.424C393.474 373.246 393.671 373.166 393.935 373.183C394.195 373.182 394.461 373.283 394.733 373.485C395.349 373.943 395.749 374.671 395.933 375.668C396.234 378.099 395.642 380.312 394.158 382.307C392.891 384.01 391.426 384.965 389.763 385.172C388.118 385.377 386.423 384.798 384.678 383.435Z" fill="#FF6787"/>
<path d="M393.953 365.451C393.224 364.582 392.631 363.659 392.175 362.682C391.709 361.695 391.351 360.661 391.102 359.582C390.843 358.493 390.691 357.385 390.646 356.259C390.602 355.115 390.676 354.012 390.867 352.951C391.295 350.665 392.208 348.879 393.607 347.592C395.246 346.084 396.96 345.755 398.749 346.604C399.364 346.888 399.957 347.35 400.529 347.992C401.093 348.623 401.506 349.313 401.77 350.062C402.025 350.8 402.149 351.58 402.142 352.399C402.136 353.201 402.009 354.034 401.761 354.899C401.523 355.755 401.183 356.607 400.742 357.455C399.822 359.186 398.594 360.775 397.06 362.222C397.145 362.392 397.306 362.615 397.543 362.892C397.78 363.169 398.087 363.445 398.462 363.718C398.829 363.983 399.213 364.169 399.614 364.278C400.488 364.536 401.25 364.365 401.902 363.765C403.014 362.743 403.797 361.421 404.252 359.8C404.423 359.236 404.518 358.733 404.536 358.291C404.555 357.831 404.651 357.522 404.824 357.363C404.996 357.205 405.242 357.173 405.56 357.27C405.879 357.347 406.158 357.516 406.396 357.774C406.863 358.282 407.125 358.855 407.181 359.494C407.084 361.812 405.843 364.068 403.456 366.263C402.048 367.559 400.529 368.177 398.9 368.119C397.061 368.042 395.411 367.153 393.953 365.451ZM395.049 349.795C394.043 350.72 393.71 352.3 394.049 354.535C394.357 356.447 395.02 358.437 396.039 360.507C397.49 358.872 398.298 356.961 398.463 354.775C398.594 352.744 398.223 351.254 397.35 350.305C396.478 349.357 395.711 349.186 395.049 349.795Z" fill="#FF6787"/>
<path d="M412.578 349.665C412.265 349.754 411.968 349.79 411.687 349.772C411.396 349.747 411.178 349.688 411.036 349.596C410.883 349.496 410.731 349.341 410.582 349.129C410.43 348.899 410.252 348.616 410.048 348.282C406.45 342.212 403.76 338.5 401.976 337.145C401.455 336.798 400.973 336.701 400.529 336.855L400.075 337.001C399.932 337.039 399.768 336.996 399.584 336.872C399.397 336.731 399.272 336.529 399.208 336.269C399.145 336.008 399.134 335.721 399.175 335.409C399.275 334.782 399.502 334.235 399.857 333.769C400.219 333.292 400.551 332.963 400.851 332.783C401.16 332.592 401.473 332.47 401.791 332.417C402.464 332.307 403.007 332.409 403.422 332.724C403.845 333.029 404.229 333.395 404.575 333.821C404.93 334.238 405.263 334.671 405.575 335.121C405.877 335.563 406.163 335.993 406.434 336.411C406.695 336.822 406.897 337.115 407.042 337.29C407.342 337.649 407.546 337.853 407.655 337.903C407.627 337.489 407.528 337.177 407.361 336.968L406.671 335.487C405.268 332.296 404.662 329.758 404.851 327.874C404.917 327.335 405.146 326.807 405.54 326.288C405.942 325.76 406.452 325.476 407.069 325.438C407.676 325.393 408.206 325.534 408.66 325.862C409.122 326.18 409.471 326.495 409.709 326.806C409.944 327.1 410.132 327.422 410.273 327.775C410.594 328.558 410.569 329.193 410.199 329.681C410.096 329.815 409.955 329.904 409.775 329.948L409.22 330.065C408.659 330.179 408.257 330.396 408.013 330.718C407.776 331.029 407.692 331.57 407.76 332.341C407.836 333.102 408.016 333.974 408.299 334.958C409.221 338.242 410.631 341.423 412.529 344.5L413.813 346.555C414.125 347.07 414.328 347.47 414.422 347.754C414.507 348.031 414.446 348.304 414.241 348.573C414.045 348.833 413.792 349.058 413.483 349.248C413.193 349.437 412.891 349.575 412.578 349.665Z" fill="#FF6787"/>
<path d="M249 69C183.567 69 125.473 100.422 88.9852 149M386.5 123.762C412.154 148.058 431.375 179.078 441.342 214M445.49 306.5C427.937 399.032 346.639 469 249 469C151.36 469 70.0625 399.032 52.5098 306.5" stroke="#C4C4C4" stroke-width="5"/>
<path d="M103.987 307.5C120.984 371.688 179.467 419 249 419C318.533 419 377.016 371.688 394.013 307.5M355 162.868C360.771 168.632 366.074 174.863 370.849 181.5M215 122.87C198.449 126.705 182.948 133.28 169 142.091" stroke="#C4C4C4" stroke-width="5"/>

</svg>
