<svg width="24" height="24" viewBox="0 0 24 24" fill="none" xmlns="http://www.w3.org/2000/svg">
<path d="M17 8.5H16C16 9.32032 15.3251 10 14.5 10C13.6749 10 13 9.32032 13 8.5H12H11C11 9.32032 10.3251 10 9.5 10C8.67488 10 8 9.32032 8 8.5H7H6C6 9.32032 5.32512 10 4.5 10C3.71216 10 3.06128 9.38034 3.00408 8.61026L4.35321 3.34963C4.35621 3.34089 4.36214 3.32456 4.37127 3.30311C4.39257 3.25311 4.42452 3.1913 4.46606 3.13523C4.54286 3.03155 4.60265 3 4.7 3H19.3C19.3974 3 19.4571 3.03155 19.5339 3.13523C19.5755 3.1913 19.6074 3.25311 19.6287 3.30311C19.6379 3.32456 19.6438 3.3409 19.6468 3.34964L20.9959 8.61026C20.9387 9.38034 20.2878 10 19.5 10C18.6749 10 18 9.32032 18 8.5H17ZM20 13.4741V20C20 20.5477 19.5477 21 19 21H5C4.45228 21 4 20.5477 4 20V13.4733C4.40536 13.5153 4.81615 13.5074 5.22307 13.4484C5.85266 13.3571 6.4564 13.1459 7.00248 12.8288C7.73891 13.2542 8.59261 13.5 9.5 13.5C10.4121 13.5 11.268 13.2557 12.0027 12.8289C12.7391 13.2543 13.5927 13.5 14.5 13.5C15.4112 13.5 16.2664 13.2561 17.0006 12.8301C17.7378 13.2565 18.5972 13.5 19.5 13.5C19.6687 13.5 19.8356 13.4912 20 13.4741Z" stroke="#585858" stroke-width="2"/>
</svg>
