<svg width="24" height="24" viewBox="0 0 24 24" fill="none" xmlns="http://www.w3.org/2000/svg">
<mask id="path-1-inside-1_438:2168" fill="white">
<path d="M16.1426 9.68984C16.1635 9.53526 16.1234 9.37859 16.0308 9.25306C15.9382 9.12753 15.8003 9.04301 15.6465 9.01741C15.4926 8.99182 15.3348 9.02716 15.2065 9.11595C15.0782 9.20474 14.9896 9.34 14.9594 9.49304C14.8569 10.1084 14.5651 10.6765 14.1246 11.1183C13.6841 11.5601 13.1168 11.8535 12.5018 11.9578C12.3449 11.9844 12.205 12.0722 12.1128 12.202C12.0206 12.3317 11.9838 12.4927 12.0104 12.6496C12.037 12.8065 12.1248 12.9465 12.2545 13.0386C12.3842 13.1308 12.5453 13.1676 12.7022 13.141C13.5633 12.9949 14.3574 12.584 14.9741 11.9654C15.5907 11.3468 15.9992 10.5514 16.1426 9.68984Z"/>
</mask>
<path d="M14.9594 9.49304L12.0162 8.91187L12.0075 8.95586L12.0002 9.00008L14.9594 9.49304ZM12.5018 11.9578L13.0028 14.9157L13.0034 14.9156L12.5018 11.9578ZM12.7022 13.141L13.2032 16.0989L13.204 16.0988L12.7022 13.141ZM19.1154 10.0927C19.2411 9.16515 19.0006 8.22515 18.4449 7.47197L13.6168 11.0342C13.2463 10.532 13.086 9.90537 13.1697 9.28702L19.1154 10.0927ZM18.4449 7.47197C17.8892 6.71879 17.062 6.21164 16.1387 6.05807L15.1542 11.9768C14.5387 11.8744 13.9872 11.5363 13.6168 11.0342L18.4449 7.47197ZM16.1387 6.05807C15.2154 5.90449 14.2685 6.11656 13.499 6.64932L16.914 11.5826C16.401 11.9378 15.7698 12.0791 15.1542 11.9768L16.1387 6.05807ZM13.499 6.64932C12.7294 7.18207 12.1975 7.9936 12.0162 8.91187L17.9025 10.0742C17.7817 10.6864 17.4271 11.2274 16.914 11.5826L13.499 6.64932ZM12.0002 9.00008L12.0002 9.00008L16.249 13.2365C17.13 12.353 17.7136 11.2167 17.9186 9.98601L12.0002 9.00008ZM12.0002 9.00008L12.0002 9.00008L13.0034 14.9156C14.2335 14.707 15.368 14.1201 16.249 13.2365L12.0002 9.00008ZM12.0008 8.99997C11.0594 9.15941 10.2199 9.68629 9.66703 10.4647L14.5586 13.9393C14.19 14.4582 13.6303 14.8094 13.0028 14.9157L12.0008 8.99997ZM9.66703 10.4647C9.11411 11.2431 8.89306 12.2092 9.05251 13.1506L14.9683 12.1487C15.0745 12.7762 14.9272 13.4203 14.5586 13.9393L9.66703 10.4647ZM9.05251 13.1506C9.21195 14.092 9.73882 14.9315 10.5172 15.4844L13.9918 10.5928C14.5107 10.9614 14.862 11.5211 14.9683 12.1487L9.05251 13.1506ZM10.5172 15.4844C11.2956 16.0373 12.2618 16.2584 13.2032 16.0989L12.2012 10.1832C12.8288 10.0769 13.4729 10.2242 13.9918 10.5928L10.5172 15.4844ZM13.204 16.0988C14.6802 15.8483 16.0416 15.1438 17.0987 14.0834L12.8494 9.84743C12.6733 10.0242 12.4464 10.1416 12.2003 10.1833L13.204 16.0988ZM17.0987 14.0834C18.1558 13.023 18.856 11.6594 19.1019 10.1824L13.1833 9.19726C13.1423 9.44343 13.0256 9.67069 12.8494 9.84743L17.0987 14.0834Z" fill="white" mask="url(#path-1-inside-1_438:2168)"/>
<mask id="path-3-inside-2_438:2168" fill="white">
<path d="M6.6 2.3999C6.44087 2.3999 6.28826 2.46312 6.17574 2.57564C6.06321 2.68816 6 2.84077 6 2.9999V9.5999C5.99998 11.0873 6.55246 12.5218 7.55026 13.6249C8.54805 14.728 9.92002 15.4212 11.4 15.5699V20.3999H9C8.84087 20.3999 8.68826 20.4631 8.57574 20.5756C8.46321 20.6882 8.4 20.8408 8.4 20.9999C8.4 21.159 8.46321 21.3116 8.57574 21.4242C8.68826 21.5367 8.84087 21.5999 9 21.5999H15C15.1591 21.5999 15.3117 21.5367 15.4243 21.4242C15.5368 21.3116 15.6 21.159 15.6 20.9999C15.6 20.8408 15.5368 20.6882 15.4243 20.5756C15.3117 20.4631 15.1591 20.3999 15 20.3999H12.6V15.5999V15.5699C14.08 15.4212 15.452 14.728 16.4497 13.6249C17.4475 12.5218 18 11.0873 18 9.5999V2.9999C18 2.84077 17.9368 2.68816 17.8243 2.57564C17.7117 2.46312 17.5591 2.3999 17.4 2.3999H6.6ZM7.2 6.5999V3.5999H16.8V6.5999H7.2ZM7.2 7.7999H16.8V9.5999C16.8 10.8729 16.2943 12.0938 15.3941 12.994C14.4939 13.8942 13.273 14.3999 12 14.3999C10.727 14.3999 9.50606 13.8942 8.60589 12.994C7.70571 12.0938 7.2 10.8729 7.2 9.5999V7.7999Z"/>
</mask>
<path d="M6 9.5999L9 9.59994V9.5999H6ZM11.4 15.5699H14.4V12.8563L11.7 12.5849L11.4 15.5699ZM11.4 20.3999V23.3999H14.4V20.3999H11.4ZM12.6 20.3999H9.6V23.3999H12.6V20.3999ZM12.6 15.5699L12.3 12.5849L9.6 12.8563V15.5699H12.6ZM18 9.5999L15 9.5999L15 9.59994L18 9.5999ZM17.4 2.3999V-0.600098V2.3999ZM7.2 6.5999H4.2V9.5999H7.2V6.5999ZM7.2 3.5999V0.599902H4.2V3.5999H7.2ZM16.8 3.5999H19.8V0.599902H16.8V3.5999ZM16.8 6.5999V9.5999H19.8V6.5999H16.8ZM7.2 7.7999V4.7999H4.2V7.7999H7.2ZM16.8 7.7999H19.8V4.7999H16.8V7.7999ZM16.8 9.5999H19.8H16.8ZM12 14.3999L12 17.3999L12 14.3999ZM7.2 9.5999H4.2H7.2ZM6.6 -0.600098C5.64522 -0.600098 4.72955 -0.220812 4.05442 0.454318L8.29706 4.69696C7.84697 5.14704 7.23652 5.3999 6.6 5.3999V-0.600098ZM4.05442 0.454318C3.37929 1.12945 3 2.04512 3 2.9999H9C9 3.63642 8.74714 4.24687 8.29706 4.69696L4.05442 0.454318ZM3 2.9999V9.5999H9V2.9999H3ZM3 9.59986C2.99997 11.831 3.82869 13.9826 5.32538 15.6373L9.77513 11.6124C9.27623 11.0609 8.99999 10.3437 9 9.59994L3 9.59986ZM5.32538 15.6373C6.82207 17.292 8.88003 18.3317 11.1 18.5549L11.7 12.5849C10.96 12.5106 10.274 12.164 9.77513 11.6124L5.32538 15.6373ZM8.4 15.5699V20.3999H14.4V15.5699H8.4ZM11.4 17.3999H9V23.3999H11.4V17.3999ZM9 17.3999C8.04523 17.3999 7.12955 17.7792 6.45442 18.4543L10.6971 22.697C10.247 23.147 9.63651 23.3999 9 23.3999V17.3999ZM6.45442 18.4543C5.77928 19.1294 5.4 20.0451 5.4 20.9999H11.4C11.4 21.6364 11.1471 22.2469 10.6971 22.697L6.45442 18.4543ZM5.4 20.9999C5.4 21.9547 5.77928 22.8704 6.45442 23.5455L10.6971 19.3028C11.1471 19.7529 11.4 20.3634 11.4 20.9999H5.4ZM6.45442 23.5455C7.12955 24.2206 8.04523 24.5999 9 24.5999V18.5999C9.63651 18.5999 10.247 18.8528 10.6971 19.3028L6.45442 23.5455ZM9 24.5999H15V18.5999H9V24.5999ZM15 24.5999C15.9548 24.5999 16.8704 24.2206 17.5456 23.5455L13.3029 19.3028C13.753 18.8528 14.3635 18.5999 15 18.5999V24.5999ZM17.5456 23.5455C18.2207 22.8703 18.6 21.9547 18.6 20.9999H12.6C12.6 20.3634 12.8529 19.7529 13.3029 19.3028L17.5456 23.5455ZM18.6 20.9999C18.6 20.0451 18.2207 19.1295 17.5456 18.4543L13.3029 22.697C12.8529 22.2469 12.6 21.6364 12.6 20.9999H18.6ZM17.5456 18.4543C16.8704 17.7792 15.9548 17.3999 15 17.3999V23.3999C14.3635 23.3999 13.753 23.1471 13.3029 22.697L17.5456 18.4543ZM15 17.3999H12.6V23.3999H15V17.3999ZM15.6 20.3999V15.5999H9.6V20.3999H15.6ZM15.6 15.5999V15.5699H9.6V15.5999H15.6ZM12.9 18.5549C15.12 18.3317 17.1779 17.292 18.6746 15.6373L14.2249 11.6124C13.726 12.164 13.04 12.5106 12.3 12.5849L12.9 18.5549ZM18.6746 15.6373C20.1713 13.9826 21 11.831 21 9.59986L15 9.59994C15 10.3437 14.7238 11.0609 14.2249 11.6124L18.6746 15.6373ZM21 9.5999V2.9999H15V9.5999H21ZM21 2.9999C21 2.04513 20.6207 1.12945 19.9456 0.454318L15.7029 4.69696C15.2529 4.24687 15 3.63642 15 2.9999H21ZM19.9456 0.454318C19.2705 -0.220814 18.3548 -0.600098 17.4 -0.600098V5.3999C16.7635 5.3999 16.153 5.14705 15.7029 4.69696L19.9456 0.454318ZM17.4 -0.600098H6.6V5.3999H17.4V-0.600098ZM10.2 6.5999V3.5999H4.2V6.5999H10.2ZM7.2 6.5999H16.8V0.599902H7.2V6.5999ZM13.8 3.5999V6.5999H19.8V3.5999H13.8ZM16.8 3.5999H7.2V9.5999H16.8V3.5999ZM7.2 10.7999H16.8V4.7999H7.2V10.7999ZM13.8 7.7999V9.5999H19.8V7.7999H13.8ZM13.8 9.5999C13.8 10.0773 13.6104 10.5351 13.2728 10.8727L17.5154 15.1153C18.9782 13.6526 19.8 11.6686 19.8 9.5999L13.8 9.5999ZM13.2728 10.8727C12.9352 11.2103 12.4774 11.3999 12 11.3999L12 17.3999C14.0687 17.3999 16.0526 16.5781 17.5154 15.1153L13.2728 10.8727ZM12 11.3999C11.5226 11.3999 11.0648 11.2103 10.7272 10.8727L6.48457 15.1153C7.94735 16.5781 9.93131 17.3999 12 17.3999L12 11.3999ZM10.7272 10.8727C10.3896 10.5351 10.2 10.0773 10.2 9.5999L4.2 9.5999C4.2 11.6686 5.02178 13.6526 6.48457 15.1153L10.7272 10.8727ZM10.2 9.5999V7.7999H4.2V9.5999H10.2Z" fill="white" mask="url(#path-3-inside-2_438:2168)"/>
</svg>
