<svg width="24" height="24" viewBox="0 0 24 24" fill="none" xmlns="http://www.w3.org/2000/svg">
<path d="M11.4277 2.00132C11.5949 2.00126 11.7568 2.05984 11.8852 2.16685C12.0136 2.27386 12.1004 2.42253 12.1305 2.58695L12.1419 2.71551V7.00066C12.1421 7.82387 11.8578 8.62186 11.3372 9.25958C10.8167 9.89729 10.0917 10.3356 9.28515 10.5002V21.2845C9.28548 21.463 9.21898 21.6351 9.09874 21.767C8.9785 21.8989 8.81323 21.981 8.63549 21.9971C8.45775 22.0132 8.28041 21.9622 8.1384 21.8541C7.99639 21.746 7.89999 21.5887 7.8682 21.413L7.85677 21.2845V10.5002C7.09139 10.3437 6.39842 9.94055 5.884 9.35261C5.36958 8.76466 5.06207 8.0243 5.00857 7.24491L5 7.00066V2.71551C4.99967 2.53704 5.06618 2.36491 5.18642 2.23302C5.30666 2.10114 5.47192 2.01905 5.64966 2.00292C5.8274 1.9868 6.00474 2.0378 6.14675 2.1459C6.28877 2.25399 6.38516 2.41134 6.41696 2.58695L6.42838 2.71551V7.00066C6.42815 7.44392 6.56541 7.87635 6.82123 8.23834C7.07705 8.60033 7.43885 8.87407 7.85677 9.02182V2.71551C7.85644 2.53704 7.92294 2.36491 8.04318 2.23302C8.16343 2.10114 8.32869 2.01905 8.50643 2.00292C8.68417 1.9868 8.86151 2.0378 9.00352 2.1459C9.14553 2.25399 9.24193 2.41134 9.27373 2.58695L9.28515 2.71551V9.02039C10.0536 8.749 10.6207 8.05195 10.7035 7.21349L10.7135 7.00066V2.71551C10.7135 2.52609 10.7888 2.34444 10.9227 2.2105C11.0567 2.07656 11.2383 2.00132 11.4277 2.00132ZM18.5696 2.00132C18.7368 2.00126 18.8987 2.05984 19.0271 2.16685C19.1555 2.27386 19.2423 2.42253 19.2724 2.58695L19.2838 2.71551V21.2845C19.2842 21.463 19.2177 21.6351 19.0974 21.767C18.9772 21.8989 18.8119 21.981 18.6342 21.9971C18.4564 22.0132 18.2791 21.9622 18.1371 21.8541C17.9951 21.746 17.8987 21.5887 17.8669 21.413L17.8555 21.2845V13.4284H15.7129C15.5457 13.4284 15.3838 13.3699 15.2554 13.2628C15.127 13.1558 15.0402 13.0072 15.0101 12.8427L14.9987 12.7142V5.57228C14.9987 4.6252 15.3749 3.71691 16.0446 3.04723C16.7143 2.37754 17.6226 2.00132 18.5696 2.00132ZM17.8555 12V3.55111C17.087 3.82251 16.5199 4.51956 16.4371 5.35945L16.4271 5.57228V12H17.8555V3.55111V12Z" fill="white"/>
</svg>
