<svg width="60" height="60" viewBox="0 0 60 60" fill="none" xmlns="http://www.w3.org/2000/svg">
<path d="M42.5 21.25H41.5C41.5 24.1253 39.1451 26.5 36.25 26.5C33.3549 26.5 31 24.1253 31 21.25H30H29C29 24.1253 26.6451 26.5 23.75 26.5C20.8549 26.5 18.5 24.1253 18.5 21.25H17.5H16.5C16.5 24.1253 14.1451 26.5 11.25 26.5C8.39552 26.5 6.06622 24.1915 6.00139 21.3708L9.44045 7.9609L9.44159 7.95703C9.44458 7.94706 9.45033 7.92846 9.45906 7.90247C9.4766 7.85028 9.50574 7.76956 9.54815 7.66999C9.63414 7.46811 9.76827 7.2038 9.95981 6.94523C10.3366 6.43655 10.8876 6 11.75 6H48.25C49.1124 6 49.6634 6.43655 50.0402 6.94523C50.2317 7.2038 50.3659 7.46811 50.4519 7.66999C50.4943 7.76957 50.5234 7.85028 50.5409 7.90247C50.5497 7.92846 50.5554 7.94706 50.5584 7.95703L50.5595 7.96087L53.9986 21.3708C53.9338 24.1915 51.6045 26.5 48.75 26.5C45.8549 26.5 43.5 24.1253 43.5 21.25H42.5ZM51.5 31.8902V50C51.5 52.1977 49.6977 54 47.5 54H12.5C10.3023 54 8.5 52.1977 8.5 50V31.8893C9.91139 32.2614 11.3881 32.3474 12.8424 32.1365C14.5213 31.8931 16.1166 31.2617 17.5033 30.2969C19.2856 31.5256 21.4399 32.25 23.75 32.25C26.0783 32.25 28.2356 31.5279 30.0036 30.2971C31.7858 31.5256 33.94 32.25 36.25 32.25C38.5769 32.25 40.733 31.5288 42.5004 30.2993C44.2726 31.5294 46.4464 32.25 48.75 32.25C49.6988 32.25 50.6228 32.1224 51.5 31.8902Z" stroke="#FF0036" stroke-width="2"/>
</svg>
