<svg width="60" height="60" viewBox="0 0 60 60" fill="none" xmlns="http://www.w3.org/2000/svg">
<path d="M47.5 50V45C47.5 42.3478 46.5781 39.8043 44.9372 37.9289C43.2962 36.0536 41.0706 35 38.75 35H21.25C18.9294 35 16.7038 36.0536 15.0628 37.9289C13.4219 39.8043 12.5 42.3478 12.5 45V50" stroke="#585858" stroke-width="2" stroke-linecap="round" stroke-linejoin="round"/>
<path d="M30 27.5C34.1421 27.5 37.5 24.1421 37.5 20C37.5 15.8579 34.1421 12.5 30 12.5C25.8579 12.5 22.5 15.8579 22.5 20C22.5 24.1421 25.8579 27.5 30 27.5Z" stroke="#585858" stroke-width="2" stroke-linecap="round" stroke-linejoin="round"/>
<circle cx="30" cy="30" r="29" stroke="#585858" stroke-width="2"/>
</svg>





