<svg width="24" height="24" viewBox="0 0 24 24" fill="none" xmlns="http://www.w3.org/2000/svg">
<path d="M19 20V18C19 16.9391 18.6313 15.9217 17.9749 15.1716C17.3185 14.4214 16.4283 14 15.5 14H8.5C7.57174 14 6.6815 14.4214 6.02513 15.1716C5.36875 15.9217 5 16.9391 5 18V20" stroke="#585858" stroke-width="2" stroke-linecap="round" stroke-linejoin="round"/>
<path d="M12 11C13.6569 11 15 9.65685 15 8C15 6.34315 13.6569 5 12 5C10.3431 5 9 6.34315 9 8C9 9.65685 10.3431 11 12 11Z" stroke="#585858" stroke-width="2" stroke-linecap="round" stroke-linejoin="round"/>
<circle cx="12" cy="12" r="11" stroke="#585858" stroke-width="2"/>
</svg>
